<?xml version="1.0" encoding="UTF-8" standalone="no"?>
<svg
   width="187.5"
   zoomAndPan="magnify"
   viewBox="0 0 140.625 140.625"
   height="187.5"
   preserveAspectRatio="xMidYMid"
   version="1.2"
   id="svg13"
   sodipodi:docname="addmatches.svg"
   inkscape:version="1.4.2 (f4327f4, 2025-05-13)"
   xmlns:inkscape="http://www.inkscape.org/namespaces/inkscape"
   xmlns:sodipodi="http://sodipodi.sourceforge.net/DTD/sodipodi-0.dtd"
   xmlns="http://www.w3.org/2000/svg"
   xmlns:svg="http://www.w3.org/2000/svg">
  <defs
     id="defs13" />
  <sodipodi:namedview
     id="namedview13"
     pagecolor="#ffffff"
     bordercolor="#000000"
     borderopacity="0.25"
     inkscape:showpageshadow="2"
     inkscape:pageopacity="0.0"
     inkscape:pagecheckerboard="0"
     inkscape:deskcolor="#d1d1d1"
     inkscape:zoom="2.502"
     inkscape:cx="98.721023"
     inkscape:cy="125.69944"
     inkscape:window-width="2560"
     inkscape:window-height="1511"
     inkscape:window-x="-9"
     inkscape:window-y="1341"
     inkscape:window-maximized="1"
     inkscape:current-layer="svg13" />
  <g
     id="adf6537480"
     transform="translate(-113.30469,-93.152344)">
    <path
       style="fill:#ffffff;fill-opacity:1;fill-rule:nonzero;stroke:none"
       d="m 242.21094,109.55859 h -11.71875 v -7.03125 c 0,-5.167965 -4.20313,-9.374996 -9.375,-9.374996 -5.17188,0 -9.375,4.207031 -9.375,9.374996 v 7.03125 h -56.25 v -7.03125 c 0,-5.167965 -4.20313,-9.374996 -9.375,-9.374996 -5.17188,0 -9.375,4.207031 -9.375,9.374996 v 7.03125 h -11.71875 c -6.46094,0 -11.71875,5.25782 -11.71875,11.71875 v 100.78125 c 0,6.46485 5.25781,11.71875 11.71875,11.71875 h 117.1875 c 6.46093,0 11.71875,-5.2539 11.71875,-11.71875 V 121.27734 c 0,-6.46093 -5.25782,-11.71875 -11.71875,-11.71875 z m -25.78125,-7.03125 c 0,-2.582028 2.10156,-4.687496 4.6875,-4.687496 2.58593,0 4.6875,2.105468 4.6875,4.687496 v 16.40625 c 0,2.58594 -2.10157,4.6875 -4.6875,4.6875 -2.58594,0 -4.6875,-2.10156 -4.6875,-4.6875 z m -75,0 c 0,-2.582028 2.10156,-4.687496 4.6875,-4.687496 2.58593,0 4.6875,2.105468 4.6875,4.687496 v 16.40625 c 0,2.58594 -2.10157,4.6875 -4.6875,4.6875 -2.58594,0 -4.6875,-2.10156 -4.6875,-4.6875 z m -23.4375,18.75 c 0,-3.875 3.15625,-7.03125 7.03125,-7.03125 h 11.71875 v 4.6875 c 0,5.17188 4.20312,9.375 9.375,9.375 5.17187,0 9.375,-4.20312 9.375,-9.375 v -4.6875 h 56.25 v 4.6875 c 0,5.17188 4.20312,9.375 9.375,9.375 5.17187,0 9.375,-4.20312 9.375,-9.375 v -4.6875 h 11.71875 c 3.875,0 7.03125,3.15625 7.03125,7.03125 v 18.75 h -131.25 z m 131.25,100.78125 c 0,3.87891 -3.15625,7.03125 -7.03125,7.03125 h -117.1875 c -3.875,0 -7.03125,-3.15234 -7.03125,-7.03125 v -77.34375 h 131.25 z m 0,0"
       id="path1" />
    <path
       style="fill:#ffffff;fill-opacity:1;fill-rule:nonzero;stroke:none"
       d="m 183.61719,219.71484 c 18.09375,0 32.8125,-14.71875 32.8125,-32.8125 0,-18.09375 -14.71875,-32.8125 -32.8125,-32.8125 -18.09375,0 -32.8125,14.71875 -32.8125,32.8125 0,18.09375 14.71875,32.8125 32.8125,32.8125 z m -15.46485,-9.34375 9.40235,-9.40625 h 12.125 l 9.40234,9.40625 c -4.44141,2.9336 -9.75391,4.65625 -15.46484,4.65625 -5.71094,0 -11.02344,-1.72265 -15.46485,-4.65625 z m 15.46485,-32.45312 8.97265,5.38281 -3.70703,12.97656 h -10.52734 l -3.70703,-12.97656 z m 19.15625,29.51562 -9.49219,-9.49218 4.04687,-14.16407 12.45313,-7.11718 c 1.25,3.17968 1.96094,6.6289 1.96094,10.24218 0,8.10547 -3.46485,15.39453 -8.96875,20.53125 z m 4.92578,-34.98047 -12.33594,7.04688 -9.40234,-5.64063 v -14.96093 c 9.23437,0.76562 17.19531,6.01172 21.73828,13.55468 z m -26.42578,-13.55468 v 14.96093 l -9.40235,5.64063 -12.33593,-7.04688 c 4.54296,-7.54296 12.5039,-12.78906 21.73828,-13.55468 z m -23.82032,17.76172 12.45313,7.11718 4.04687,14.16407 -9.49218,9.49218 c -5.50391,-5.13672 -8.96875,-12.42578 -8.96875,-20.53125 0,-3.61328 0.71093,-7.0625 1.96093,-10.24218 z m 0,0"
       id="path2" />
    <path
       style="fill:#ffffff;fill-opacity:1;fill-rule:nonzero;stroke:none"
       d="m 181.27344,130.65234 h 4.6875 v 4.6875 h -4.6875 z m 0,0"
       id="path3" />
    <path
       style="fill:#ffffff;fill-opacity:1;fill-rule:nonzero;stroke:none"
       d="m 190.64844,130.65234 h 4.6875 v 4.6875 h -4.6875 z m 0,0"
       id="path4" />
    <path
       style="fill:#ffffff;fill-opacity:1;fill-rule:nonzero;stroke:none"
       d="m 171.89844,130.65234 h 4.6875 v 4.6875 h -4.6875 z m 0,0"
       id="path5" />
    <path
       style="fill:#ffffff;fill-opacity:1;fill-rule:nonzero;stroke:none"
       d="m 235.17969,193.93359 h 4.6875 v 4.6875 h -4.6875 z m 0,0"
       id="path6" />
    <path
       style="fill:#ffffff;fill-opacity:1;fill-rule:nonzero;stroke:none"
       d="m 235.17969,184.55859 h 4.6875 v 4.6875 h -4.6875 z m 0,0"
       id="path7" />
    <path
       style="fill:#ffffff;fill-opacity:1;fill-rule:nonzero;stroke:none"
       d="m 235.17969,175.18359 h 4.6875 v 4.6875 h -4.6875 z m 0,0"
       id="path8" />
    <path
       style="fill:#ffffff;fill-opacity:1;fill-rule:nonzero;stroke:none"
       d="m 225.80469,184.55859 h 4.6875 v 4.6875 h -4.6875 z m 0,0"
       id="path9" />
    <path
       style="fill:#ffffff;fill-opacity:1;fill-rule:nonzero;stroke:none"
       d="m 127.36719,175.18359 h 4.6875 v 4.6875 h -4.6875 z m 0,0"
       id="path10" />
    <path
       style="fill:#ffffff;fill-opacity:1;fill-rule:nonzero;stroke:none"
       d="m 127.36719,184.55859 h 4.6875 v 4.6875 h -4.6875 z m 0,0"
       id="path11" />
    <path
       style="fill:#ffffff;fill-opacity:1;fill-rule:nonzero;stroke:none"
       d="m 127.36719,193.93359 h 4.6875 v 4.6875 h -4.6875 z m 0,0"
       id="path12" />
    <path
       style="fill:#ffffff;fill-opacity:1;fill-rule:nonzero;stroke:none"
       d="m 136.74219,184.55859 h 4.6875 v 4.6875 h -4.6875 z m 0,0"
       id="path13" />
  </g>
</svg>
