<?xml version="1.0" encoding="UTF-8" standalone="no"?>
<svg
   width="169.34895"
   zoomAndPan="magnify"
   viewBox="0 0 127.01171 127.49609"
   height="169.9948"
   preserveAspectRatio="xMidYMid"
   version="1.2"
   id="svg12"
   sodipodi:docname="addmatch.svg"
   inkscape:version="1.4.2 (f4327f4, 2025-05-13)"
   xmlns:inkscape="http://www.inkscape.org/namespaces/inkscape"
   xmlns:sodipodi="http://sodipodi.sourceforge.net/DTD/sodipodi-0.dtd"
   xmlns="http://www.w3.org/2000/svg"
   xmlns:svg="http://www.w3.org/2000/svg">
  <sodipodi:namedview
     id="namedview12"
     pagecolor="#ffffff"
     bordercolor="#000000"
     borderopacity="0.25"
     inkscape:showpageshadow="2"
     inkscape:pageopacity="0.0"
     inkscape:pagecheckerboard="0"
     inkscape:deskcolor="#d1d1d1"
     inkscape:zoom="2.502"
     inkscape:cx="97.921663"
     inkscape:cy="84.132694"
     inkscape:window-width="2560"
     inkscape:window-height="1511"
     inkscape:window-x="-9"
     inkscape:window-y="1341"
     inkscape:window-maximized="1"
     inkscape:current-layer="svg12" />
  <defs
     id="defs6">
    <clipPath
       id="43598fbc7c">
      <path
         d="m 114.04688,124.37109 h 127.49999 v 127.5 H 114.04688 Z m 0,0"
         id="path1" />
    </clipPath>
    <clipPath
       id="81d1be2fd5">
      <path
         d="m 131.26562,124.37109 h 92.57422 c 4.56641,0 8.94532,1.8125 12.17578,5.04297 3.22657,3.22656 5.04297,7.60547 5.04297,12.17188 v 93.0664 c 0,4.56641 -1.8164,8.94532 -5.04297,12.17188 -3.23046,3.23047 -7.60937,5.04297 -12.17578,5.04297 h -92.57422 c -4.5664,0 -8.94531,-1.8125 -12.17578,-5.04297 -3.22656,-3.22656 -5.04296,-7.60547 -5.04296,-12.17188 v -93.0664 c 0,-4.56641 1.8164,-8.94532 5.04296,-12.17188 3.23047,-3.23047 7.60938,-5.04297 12.17578,-5.04297 z m 0,0"
         id="path2" />
    </clipPath>
    <clipPath
       id="50bea23579">
      <path
         d="M 120.84375,146 H 174 v 89.75391 h -53.15625 z m 0,0"
         id="path3" />
    </clipPath>
    <clipPath
       id="d424a514f7">
      <path
         d="m 120.84375,178.50781 h 16.97656 v 25.48047 h -16.97656 z m 0,0"
         id="path4" />
    </clipPath>
    <clipPath
       id="8b29589c22">
      <path
         d="m 218,178.50781 h 16.82031 v 25.48047 H 218 Z m 0,0"
         id="path5" />
    </clipPath>
    <clipPath
       id="151b2a913d">
      <path
         d="m 181.5,146 h 53.32031 v 89.75391 H 181.5 Z m 0,0"
         id="path6" />
    </clipPath>
  </defs>
  <g
     id="faa51807a2"
     transform="translate(-114.04688,-124.37109)">
    <g
       clip-rule="nonzero"
       clip-path="url(#43598fbc7c)"
       id="g8">
      <g
         clip-rule="nonzero"
         clip-path="url(#81d1be2fd5)"
         id="g7">
        <path
           style="fill:none;stroke:#ffffff;stroke-width:8;stroke-linecap:butt;stroke-linejoin:miter;stroke-miterlimit:4;stroke-opacity:1"
           d="M 22.998812,0.00198593 H 146.65801 c 6.09974,0 11.94901,2.42110907 16.26422,6.73631907 4.30999,4.309992 6.73632,10.159267 6.73632,16.259001 V 147.31396 c 0,6.09974 -2.42633,11.94901 -6.73632,16.259 -4.31521,4.31521 -10.16448,6.73632 -16.26422,6.73632 H 22.998812 c -6.099735,0 -11.949009,-2.42111 -16.264219,-6.73632 -4.309992,-4.30999 -6.73631938,-10.15926 -6.73631938,-16.259 V 22.997306 c 0,-6.099734 2.42632738,-11.949009 6.73631938,-16.259001 4.31521,-4.31521 10.164484,-6.73631907 16.264219,-6.73631907 z m 0,0"
           transform="matrix(0.748624,0,0,0.748624,114.04817,124.36961)"
           id="path7" />
      </g>
    </g>
    <g
       clip-rule="nonzero"
       clip-path="url(#50bea23579)"
       id="g9">
      <path
         style="fill:#ffffff;fill-opacity:1;fill-rule:nonzero;stroke:none"
         d="m 157.51953,190.91406 c 0,-1.16797 0.10156,-2.32031 0.30078,-3.46484 0.19922,-1.14844 0.49219,-2.26953 0.88281,-3.36719 0.39454,-1.09766 0.875,-2.15234 1.44532,-3.16406 0.57031,-1.01172 1.22656,-1.96875 1.96093,-2.8711 0.73829,-0.90625 1.54297,-1.73437 2.42579,-2.49609 0.8789,-0.76562 1.8125,-1.44922 2.80859,-2.05078 0.99609,-0.60156 2.03516,-1.11719 3.12109,-1.54297 1.07813,-0.42578 2.19141,-0.75391 3.33203,-0.98828 v -24.82813 h -40.69921 c -0.80079,0 -1.59766,0.0781 -2.38282,0.23438 -0.78515,0.15625 -1.55078,0.39062 -2.28906,0.69531 -0.74219,0.3086 -1.44531,0.6836 -2.10937,1.12891 -0.67188,0.44531 -1.28516,0.95312 -1.85547,1.51953 -0.5625,0.56641 -1.07031,1.18359 -1.51563,1.85156 -0.44531,0.66406 -0.82031,1.36719 -1.1289,2.10938 -0.3086,0.74218 -0.53907,1.5039 -0.69532,2.28906 -0.15625,0.78906 -0.23437,1.58203 -0.23437,2.38281 v 12.21094 h 16.28125 c 0.53515,0 1.0625,0.0508 1.58984,0.15625 0.51953,0.10156 1.03125,0.26172 1.52344,0.46094 0.49219,0.20703 0.96484,0.45703 1.40625,0.7539 0.44531,0.29688 0.85937,0.63282 1.23437,1.01172 0.37891,0.37891 0.71875,0.78906 1.01172,1.23438 0.30078,0.44531 0.55078,0.91015 0.75391,1.40625 0.20312,0.49218 0.35937,1.0039 0.46484,1.52734 0.10157,0.52344 0.15625,1.05469 0.15625,1.58984 V 203.125 c 0,0.53125 -0.0547,1.0625 -0.15625,1.58594 -0.10547,0.52343 -0.26172,1.03125 -0.46484,1.52734 -0.20313,0.49219 -0.45313,0.96094 -0.75391,1.40625 -0.29297,0.44531 -0.63281,0.85547 -1.01172,1.23438 -0.375,0.375 -0.78906,0.71484 -1.23437,1.01171 -0.44141,0.29688 -0.91406,0.54688 -1.40625,0.75 -0.49219,0.20704 -1.00391,0.35938 -1.52344,0.46485 -0.52734,0.10547 -1.05469,0.15625 -1.58984,0.15625 h -16.28125 v 12.20703 c 0,0.80469 0.0781,1.59766 0.23437,2.38281 0.15625,0.78906 0.38672,1.55078 0.69532,2.29297 0.30859,0.73828 0.68359,1.44531 1.1289,2.11328 0.44532,0.66406 0.95313,1.28125 1.51563,1.84766 0.57031,0.5664 1.18359,1.07422 1.85547,1.51562 0.66406,0.44922 1.36718,0.82813 2.10937,1.13282 0.73828,0.30468 1.50391,0.53515 2.28906,0.6914 0.78516,0.15625 1.58203,0.23438 2.38282,0.23438 h 40.69921 v -24.82422 c -1.14062,-0.23438 -2.2539,-0.56641 -3.33203,-0.98828 -1.08593,-0.42578 -2.125,-0.9375 -3.12109,-1.54297 -0.99609,-0.60156 -1.92969,-1.28516 -2.80859,-2.04688 -0.88282,-0.76562 -1.6875,-1.59765 -2.42579,-2.5 -0.73437,-0.89843 -1.39062,-1.85937 -1.96093,-2.87109 -0.57032,-1.01563 -1.05078,-2.07031 -1.44532,-3.16406 -0.39062,-1.09375 -0.68359,-2.21875 -0.88281,-3.36328 -0.19922,-1.14844 -0.30078,-2.30469 -0.30078,-3.46485 z m 0,0"
         id="path8" />
    </g>
    <g
       clip-rule="nonzero"
       clip-path="url(#d424a514f7)"
       id="g10">
      <path
         style="fill:#ffffff;fill-opacity:1;fill-rule:nonzero;stroke:none"
         d="m 120.88672,178.70312 h 16.28125 V 203.125 h -16.28125 z m 0,0"
         id="path9" />
    </g>
    <path
       style="fill:#ffffff;fill-opacity:1;fill-rule:nonzero;stroke:none"
       d="m 190.07812,190.91406 c 0,0.80078 -0.0781,1.59375 -0.23437,2.37891 -0.15625,0.78906 -0.38672,1.55078 -0.69531,2.29297 -0.3086,0.73828 -0.6836,1.4414 -1.12891,2.10937 -0.44531,0.66406 -0.95312,1.28516 -1.51562,1.84766 -0.57032,0.57031 -1.1836,1.07422 -1.85157,1.52344 -0.66797,0.44531 -1.37109,0.82031 -2.11328,1.125 -0.73828,0.30468 -1.5039,0.54296 -2.28906,0.69921 -0.78516,0.15625 -1.58203,0.23438 -2.38281,0.23438 -0.80078,0 -1.59375,-0.0781 -2.37891,-0.23438 -0.78906,-0.15625 -1.55078,-0.39453 -2.29297,-0.69921 -0.74219,-0.30469 -1.44531,-0.67969 -2.10937,-1.125 -0.66797,-0.44922 -1.28516,-0.95313 -1.85157,-1.52344 -0.5664,-0.5625 -1.07421,-1.1836 -1.51953,-1.84766 -0.4414,-0.66797 -0.82031,-1.37109 -1.1289,-2.10937 -0.30469,-0.74219 -0.53907,-1.50391 -0.69532,-2.29297 -0.15625,-0.78516 -0.23437,-1.57813 -0.23437,-2.37891 0,-0.80469 0.0781,-1.59765 0.23437,-2.38281 0.15625,-0.78906 0.39063,-1.55078 0.69532,-2.29297 0.30859,-0.73828 0.6875,-1.44141 1.1289,-2.10937 0.44532,-0.66797 0.95313,-1.28516 1.51953,-1.85157 0.56641,-0.5664 1.1836,-1.07031 1.85157,-1.51562 0.66406,-0.44922 1.36718,-0.82031 2.10937,-1.13281 0.74219,-0.30469 1.50391,-0.53516 2.29297,-0.69141 0.78516,-0.15625 1.57813,-0.23438 2.37891,-0.23438 0.80078,0 1.59765,0.0781 2.38281,0.23438 0.78516,0.15625 1.55078,0.38672 2.28906,0.69141 0.74219,0.3125 1.44531,0.68359 2.11328,1.13281 0.66797,0.44531 1.28125,0.94922 1.85157,1.51562 0.5625,0.56641 1.07031,1.1836 1.51562,1.85157 0.44531,0.66796 0.82031,1.37109 1.12891,2.10937 0.30859,0.74219 0.53906,1.50391 0.69531,2.29297 0.15625,0.78516 0.23437,1.57812 0.23437,2.38281 z m 0,0"
       id="path10" />
    <g
       clip-rule="nonzero"
       clip-path="url(#8b29589c22)"
       id="g11">
      <path
         style="fill:#ffffff;fill-opacity:1;fill-rule:nonzero;stroke:none"
         d="m 218.57031,178.70312 h 16.27735 V 203.125 h -16.27735 z m 0,0"
         id="path11" />
    </g>
    <g
       clip-rule="nonzero"
       clip-path="url(#151b2a913d)"
       id="g12">
      <path
         style="fill:#ffffff;fill-opacity:1;fill-rule:nonzero;stroke:none"
         d="M 222.64062,146.14062 H 181.9375 v 24.82813 c 1.14062,0.23437 2.25391,0.5625 3.34375,0.98437 1.08203,0.42188 2.125,0.9336 3.12109,1.53516 0.9961,0.60156 1.9375,1.28125 2.81641,2.04688 0.87891,0.76562 1.6875,1.59765 2.42578,2.5 0.73828,0.89843 1.39453,1.85937 1.96484,2.87109 0.57422,1.01562 1.05469,2.07422 1.44532,3.16797 0.39453,1.09765 0.6875,2.22265 0.88672,3.37109 0.19921,1.14844 0.29687,2.30078 0.29687,3.46875 0,1.16016 -0.0977,2.32031 -0.29687,3.46875 -0.19922,1.14453 -0.49219,2.26953 -0.88672,3.36719 -0.39063,1.09766 -0.8711,2.15234 -1.44532,3.16797 -0.57031,1.01172 -1.22656,1.97265 -1.96484,2.875 -0.73828,0.89844 -1.54687,1.73437 -2.42578,2.49609 -0.87891,0.76172 -1.82031,1.44531 -2.81641,2.04688 -0.99609,0.59765 -2.03906,1.11328 -3.12109,1.53906 -1.08984,0.42187 -2.20313,0.75 -3.34375,0.98047 v 24.82422 h 40.70312 c 0.79688,0 1.58985,-0.0781 2.37891,-0.23438 0.78906,-0.15625 1.55078,-0.38672 2.28906,-0.6914 0.74219,-0.30469 1.44532,-0.6836 2.11328,-1.13282 0.66407,-0.4414 1.28125,-0.94922 1.84766,-1.51562 0.57031,-0.56641 1.07422,-1.1836 1.52344,-1.84766 0.4414,-0.66797 0.82031,-1.375 1.125,-2.11328 0.30469,-0.74219 0.53906,-1.50391 0.69531,-2.29297 0.15625,-0.78515 0.23438,-1.57812 0.23438,-2.38281 v -12.20703 h -16.27735 c -0.53906,0 -1.0664,-0.0508 -1.58984,-0.15625 -0.52735,-0.10547 -1.03516,-0.25781 -1.52735,-0.46485 -0.49609,-0.20312 -0.96484,-0.45312 -1.41015,-0.75 -0.44141,-0.29687 -0.85156,-0.63671 -1.23047,-1.01171 -0.37891,-0.37891 -0.71484,-0.78907 -1.01172,-1.23438 -0.29687,-0.44531 -0.55078,-0.91406 -0.75391,-1.40625 -0.20703,-0.49609 -0.35937,-1.00391 -0.46093,-1.52734 -0.10547,-0.52344 -0.15625,-1.05469 -0.15625,-1.58594 v -24.42188 c 0,-0.53515 0.0508,-1.0664 0.15625,-1.58984 0.10156,-0.52344 0.2539,-1.03516 0.46093,-1.52734 0.20313,-0.4961 0.45704,-0.96094 0.75391,-1.40625 0.29688,-0.44532 0.63281,-0.85547 1.01172,-1.23438 0.37891,-0.3789 0.78906,-0.71484 1.23047,-1.01172 0.44531,-0.29687 0.91406,-0.54687 1.41015,-0.7539 0.49219,-0.19922 1,-0.35938 1.52735,-0.46094 0.52344,-0.10547 1.05078,-0.15625 1.58984,-0.15625 h 16.27735 v -12.21094 c 0,-0.80078 -0.0781,-1.59375 -0.23438,-2.38281 -0.15625,-0.78516 -0.39062,-1.54688 -0.69531,-2.28906 -0.30469,-0.74219 -0.6836,-1.44532 -1.125,-2.10938 -0.44922,-0.66797 -0.95313,-1.28515 -1.52344,-1.85156 -0.56641,-0.56641 -1.18359,-1.07422 -1.84766,-1.51953 -0.66796,-0.44531 -1.37109,-0.82031 -2.11328,-1.12891 -0.73828,-0.30469 -1.5,-0.53906 -2.28906,-0.69531 -0.78906,-0.15625 -1.58203,-0.23438 -2.37891,-0.23438 z m 0,0"
         id="path12" />
    </g>
  </g>
</svg>
