<?xml version="1.0" encoding="UTF-8" standalone="no"?>
<svg
   width="192.65625"
   zoomAndPan="magnify"
   viewBox="0 0 144.49219 105.08593"
   height="140.11458"
   preserveAspectRatio="xMidYMid"
   version="1.2"
   id="svg2"
   sodipodi:docname="addplayers.svg"
   inkscape:version="1.4.2 (f4327f4, 2025-05-13)"
   xmlns:inkscape="http://www.inkscape.org/namespaces/inkscape"
   xmlns:sodipodi="http://sodipodi.sourceforge.net/DTD/sodipodi-0.dtd"
   xmlns="http://www.w3.org/2000/svg"
   xmlns:svg="http://www.w3.org/2000/svg">
  <sodipodi:namedview
     id="namedview2"
     pagecolor="#ffffff"
     bordercolor="#000000"
     borderopacity="0.25"
     inkscape:showpageshadow="2"
     inkscape:pageopacity="0.0"
     inkscape:pagecheckerboard="0"
     inkscape:deskcolor="#d1d1d1"
     inkscape:zoom="2.502"
     inkscape:cx="123.10152"
     inkscape:cy="93.72502"
     inkscape:window-width="2560"
     inkscape:window-height="1511"
     inkscape:window-x="-9"
     inkscape:window-y="1341"
     inkscape:window-maximized="1"
     inkscape:current-layer="svg2" />
  <defs
     id="defs1">
    <clipPath
       id="e0b9c908f1">
      <path
         d="M 95.148438,117.23438 H 239.64844 v 105.1914 H 95.148438 Z m 0,0"
         id="path1" />
    </clipPath>
  </defs>
  <g
     id="127a9044f1"
     transform="translate(-95.152344,-117.23438)">
    <g
       clip-rule="nonzero"
       clip-path="url(#e0b9c908f1)"
       id="g2">
      <path
         style="fill:#ffffff;fill-opacity:1;fill-rule:evenodd;stroke:none"
         d="m 187.10156,169.77734 c 14.51563,0 26.27344,-11.76172 26.27344,-26.27343 0,-14.51563 -11.75781,-26.26953 -26.27344,-26.26953 -14.51172,0 -26.26953,11.7539 -26.26953,26.26953 0,14.51171 11.75781,26.27343 26.26953,26.27343 z m -59.10937,-13.14062 v -13.13281 c 0,-3.61329 -2.95703,-6.57032 -6.56641,-6.57032 -3.61328,0 -6.57031,2.95703 -6.57031,6.57032 v 13.13281 h -13.13281 c -3.613285,0 -6.570316,2.95703 -6.570316,6.57031 0,3.61328 2.957031,6.57031 6.570316,6.57031 h 13.13281 v 13.13282 c 0,3.61328 2.95703,6.57031 6.57031,6.57031 3.60938,0 6.56641,-2.95703 6.56641,-6.57031 v -13.13282 h 13.13672 c 3.60937,0 6.5664,-2.95703 6.5664,-6.57031 0,-3.61328 -2.95703,-6.57031 -6.5664,-6.57031 z m 59.10937,26.27344 c -17.53515,0 -52.54297,8.80078 -52.54297,26.26953 V 215.75 c 0,3.61328 2.95703,6.57031 6.57032,6.57031 h 91.94921 c 3.61329,0 6.56641,-2.95703 6.56641,-6.57031 v -6.57031 c 0,-17.46875 -35.00391,-26.26953 -52.54297,-26.26953 z m 0,0"
         id="path2" />
    </g>
  </g>
</svg>
