<?xml version="1.0" encoding="UTF-8" standalone="no"?>
<svg
   width="169.34895"
   zoomAndPan="magnify"
   viewBox="0 0 127.01171 127.49609"
   height="169.9948"
   preserveAspectRatio="xMidYMid"
   version="1.2"
   id="svg6"
   sodipodi:docname="cancel.svg"
   inkscape:version="1.4.2 (f4327f4, 2025-05-13)"
   xmlns:inkscape="http://www.inkscape.org/namespaces/inkscape"
   xmlns:sodipodi="http://sodipodi.sourceforge.net/DTD/sodipodi-0.dtd"
   xmlns="http://www.w3.org/2000/svg"
   xmlns:svg="http://www.w3.org/2000/svg">
  <sodipodi:namedview
     id="namedview6"
     pagecolor="#ffffff"
     bordercolor="#000000"
     borderopacity="0.25"
     inkscape:showpageshadow="2"
     inkscape:pageopacity="0.0"
     inkscape:pagecheckerboard="0"
     inkscape:deskcolor="#d1d1d1"
     inkscape:zoom="3.63"
     inkscape:cx="97.796143"
     inkscape:cy="84.15978"
     inkscape:window-width="3840"
     inkscape:window-height="2054"
     inkscape:window-x="-11"
     inkscape:window-y="-11"
     inkscape:window-maximized="1"
     inkscape:current-layer="svg6" />
  <defs
     id="defs3">
    <clipPath
       id="9110a58e77">
      <path
         d="m 114.04688,124.37109 h 127.49999 v 127.5 H 114.04688 Z m 0,0"
         id="path1" />
    </clipPath>
    <clipPath
       id="5703890f57">
      <path
         d="m 131.26562,124.37109 h 92.57422 c 4.56641,0 8.94532,1.8125 12.17578,5.04297 3.22657,3.22656 5.04297,7.60547 5.04297,12.17188 v 93.0664 c 0,4.56641 -1.8164,8.94532 -5.04297,12.17188 -3.23046,3.23047 -7.60937,5.04297 -12.17578,5.04297 h -92.57422 c -4.5664,0 -8.94531,-1.8125 -12.17578,-5.04297 -3.22656,-3.22656 -5.04296,-7.60547 -5.04296,-12.17188 v -93.0664 c 0,-4.56641 1.8164,-8.94532 5.04296,-12.17188 3.23047,-3.23047 7.60938,-5.04297 12.17578,-5.04297 z m 0,0"
         id="path2" />
    </clipPath>
    <clipPath
       id="4a8553fca7">
      <path
         d="m 127.61328,138.17969 h 99.75 v 99.75 h -99.75 z m 0,0"
         id="path3" />
    </clipPath>
  </defs>
  <g
     id="cd6b612343"
     transform="translate(-114.04688,-124.37109)">
    <g
       clip-rule="nonzero"
       clip-path="url(#9110a58e77)"
       id="g5">
      <g
         clip-rule="nonzero"
         clip-path="url(#5703890f57)"
         id="g4">
        <path
           style="fill:none;stroke:#ffffff;stroke-width:8;stroke-linecap:butt;stroke-linejoin:miter;stroke-miterlimit:4;stroke-opacity:1"
           d="M 22.998812,0.00198593 H 146.65801 c 6.09974,0 11.94901,2.42110907 16.26422,6.73631907 4.30999,4.309992 6.73632,10.159267 6.73632,16.259001 V 147.31396 c 0,6.09974 -2.42633,11.94901 -6.73632,16.259 -4.31521,4.31521 -10.16448,6.73632 -16.26422,6.73632 H 22.998812 c -6.099735,0 -11.949009,-2.42111 -16.264219,-6.73632 -4.309992,-4.30999 -6.73631938,-10.15926 -6.73631938,-16.259 V 22.997306 c 0,-6.099734 2.42632738,-11.949009 6.73631938,-16.259001 4.31521,-4.31521 10.164484,-6.73631907 16.264219,-6.73631907 z m 0,0"
           transform="matrix(0.748624,0,0,0.748624,114.04817,124.36961)"
           id="path4" />
      </g>
    </g>
    <g
       clip-rule="nonzero"
       clip-path="url(#4a8553fca7)"
       id="g6">
      <path
         style="fill:#ffffff;fill-opacity:1;fill-rule:nonzero;stroke:none"
         d="m 196.19922,188.05469 28.07031,-28.07422 c 4.11719,-4.11719 4.11719,-10.85156 0,-14.96875 l -3.74219,-3.74219 c -4.11718,-4.12109 -10.85156,-4.12109 -14.96875,0 l -28.07031,28.07422 -28.07422,-28.07422 c -4.11328,-4.11719 -10.85156,-4.11719 -14.96875,0 l -3.74609,3.74219 c -4.10938,4.11719 -4.10938,10.85156 0,14.96875 l 28.07031,28.07031 -28.07031,28.07422 c -4.10938,4.11719 -4.10938,10.85547 0,14.96875 l 3.74609,3.73828 c 4.11719,4.11719 10.85547,4.11719 14.96875,0 l 28.07422,-28.0625 28.07031,28.0625 c 4.11719,4.11719 10.85157,4.11719 14.96875,0 l 3.74219,-3.73828 c 4.11719,-4.11719 4.11719,-10.85547 0,-14.96875 z m 0,0"
         id="path5" />
    </g>
  </g>
</svg>
