<?xml version="1.0" encoding="UTF-8" standalone="no"?>
<svg
   width="200"
   zoomAndPan="magnify"
   viewBox="0 0 150 150"
   height="200"
   preserveAspectRatio="xMidYMid"
   version="1.2"
   id="svg2"
   sodipodi:docname="checkbox.svg"
   inkscape:version="1.4.2 (f4327f4, 2025-05-13)"
   xmlns:inkscape="http://www.inkscape.org/namespaces/inkscape"
   xmlns:sodipodi="http://sodipodi.sourceforge.net/DTD/sodipodi-0.dtd"
   xmlns="http://www.w3.org/2000/svg"
   xmlns:svg="http://www.w3.org/2000/svg">
  <sodipodi:namedview
     id="namedview2"
     pagecolor="#ffffff"
     bordercolor="#000000"
     borderopacity="0.25"
     inkscape:showpageshadow="2"
     inkscape:pageopacity="0.0"
     inkscape:pagecheckerboard="0"
     inkscape:deskcolor="#d1d1d1"
     inkscape:zoom="3.63"
     inkscape:cx="99.724518"
     inkscape:cy="99.862259"
     inkscape:window-width="3840"
     inkscape:window-height="2054"
     inkscape:window-x="-11"
     inkscape:window-y="-11"
     inkscape:window-maximized="1"
     inkscape:current-layer="svg2" />
  <defs
     id="defs1">
    <clipPath
       id="fce3502162">
      <path
         d="m 112.5,112.5 h 150 v 150 h -150 z m 0,0"
         id="path1" />
    </clipPath>
  </defs>
  <g
     id="90ea5d23d8"
     transform="translate(-112.5,-112.5)">
    <g
       clip-rule="nonzero"
       clip-path="url(#fce3502162)"
       id="g2">
      <path
         style="fill:#ffffff;fill-opacity:1;fill-rule:evenodd;stroke:none"
         d="m 187.5,112.5 c -41.39844,0 -75,33.60156 -75,75 0,41.39844 33.60156,75 75,75 41.39844,0 75,-33.60156 75,-75 0,-41.39844 -33.60156,-75 -75,-75 z M 167.17578,219.67578 140.25,192.75 c -2.92578,-2.92578 -2.92578,-7.64844 0,-10.57422 2.92578,-2.92578 7.64844,-2.92578 10.57422,0 L 172.5,203.77344 224.10156,152.17578 c 2.92188,-2.92578 7.64844,-2.92578 10.57422,0 2.92578,2.92578 2.92578,7.64844 0,10.57422 L 177.75,219.67578 c -2.85156,2.92578 -7.64844,2.92578 -10.57422,0 z m 0,0"
         id="path2" />
    </g>
  </g>
</svg>
