<?xml version="1.0" encoding="UTF-8" standalone="no"?>
<svg
   width="20.100506"
   height="18.441"
   viewBox="0 0 20.100506 18.441"
   version="1.1"
   xml:space="preserve"
   style="clip-rule:evenodd;fill-rule:evenodd;stroke-linejoin:round;stroke-miterlimit:2"
   id="svg1"
   sodipodi:docname="danger.svg"
   inkscape:version="1.4.2 (f4327f4, 2025-05-13)"
   xmlns:inkscape="http://www.inkscape.org/namespaces/inkscape"
   xmlns:sodipodi="http://sodipodi.sourceforge.net/DTD/sodipodi-0.dtd"
   xmlns="http://www.w3.org/2000/svg"
   xmlns:svg="http://www.w3.org/2000/svg"><defs
     id="defs1" /><sodipodi:namedview
     id="namedview1"
     pagecolor="#080808"
     bordercolor="#000000"
     borderopacity="0.24705882"
     inkscape:showpageshadow="2"
     inkscape:pageopacity="0.0"
     inkscape:pagecheckerboard="0"
     inkscape:deskcolor="#d1d1d1"
     inkscape:zoom="75.625"
     inkscape:cx="10.06281"
     inkscape:cy="9.1966942"
     inkscape:window-width="3840"
     inkscape:window-height="2054"
     inkscape:window-x="-11"
     inkscape:window-y="-11"
     inkscape:window-maximized="1"
     inkscape:current-layer="g1" /><g
     id="Icon"
     transform="translate(-1.9497468,-2.809)"
     style="fill:#000000"><g
       id="g1"
       style="fill:#000000"><path
         d="M 10.47,3.709 C 8.56,7.148 4.035,15.293 2.17,18.65 c -0.301,0.542 -0.293,1.203 0.021,1.737 0.315,0.535 0.888,0.863 1.508,0.863 h 16.602 c 0.62,0 1.193,-0.328 1.508,-0.863 0.314,-0.534 0.322,-1.195 0.021,-1.737 L 13.53,3.709 c -0.309,-0.555 -0.894,-0.9 -1.53,-0.9 -0.636,0 -1.221,0.345 -1.53,0.9 z M 12,16.5 c 0.552,0 1,0.448 1,1 0,0.552 -0.448,1 -1,1 -0.552,0 -1,-0.448 -1,-1 0,-0.552 0.448,-1 1,-1 z M 13.385,9.494 C 13.415,9.109 13.282,8.729 13.02,8.445 12.757,8.161 12.388,8 12.001,8 12,8 12,8 11.999,8 11.612,8 11.243,8.161 10.98,8.445 c -0.262,0.284 -0.395,0.664 -0.365,1.049 0.097,1.259 0.232,3.02 0.314,4.083 0.04,0.521 0.474,0.923 0.997,0.923 0.049,0 0.099,0 0.148,0 0.523,0 0.957,-0.402 0.997,-0.923 0.082,-1.063 0.217,-2.824 0.314,-4.083 z"
         id="path1"
         style="fill:#ffffff;fill-opacity:1" /></g></g></svg>
