<?xml version="1.0" encoding="UTF-8" standalone="no"?>
<svg
   width="199.60938"
   zoomAndPan="magnify"
   viewBox="0 0 149.70703 137.23828"
   height="182.98438"
   preserveAspectRatio="xMidYMid"
   version="1.2"
   id="svg4"
   sodipodi:docname="delete.svg"
   inkscape:version="1.4.2 (f4327f4, 2025-05-13)"
   xmlns:inkscape="http://www.inkscape.org/namespaces/inkscape"
   xmlns:sodipodi="http://sodipodi.sourceforge.net/DTD/sodipodi-0.dtd"
   xmlns="http://www.w3.org/2000/svg"
   xmlns:svg="http://www.w3.org/2000/svg">
  <sodipodi:namedview
     id="namedview4"
     pagecolor="#ffffff"
     bordercolor="#000000"
     borderopacity="0.25"
     inkscape:showpageshadow="2"
     inkscape:pageopacity="0.0"
     inkscape:pagecheckerboard="0"
     inkscape:deskcolor="#d1d1d1"
     inkscape:zoom="3.63"
     inkscape:cx="94.76584"
     inkscape:cy="81.404959"
     inkscape:window-width="3840"
     inkscape:window-height="2054"
     inkscape:window-x="-11"
     inkscape:window-y="-11"
     inkscape:window-maximized="1"
     inkscape:current-layer="svg4" />
  <defs
     id="defs1">
    <clipPath
       id="6fcbffcda5">
      <path
         d="M 116.22266,126.10547 H 266 V 264 H 116.22266 Z m 0,0"
         id="path1" />
    </clipPath>
  </defs>
  <g
     id="9b44f71779"
     transform="translate(-116.22266,-126.48438)">
    <g
       clip-rule="nonzero"
       clip-path="url(#6fcbffcda5)"
       id="g2">
      <path
         style="fill:#ffffff;fill-opacity:1;fill-rule:nonzero;stroke:none"
         d="M 259.68359,138.95312 H 228.5 v -6.22265 c 0.004,-0.41016 -0.0352,-0.81641 -0.11328,-1.21875 -0.082,-0.40235 -0.19922,-0.79688 -0.35547,-1.17578 -0.15625,-0.37891 -0.34766,-0.73828 -0.57422,-1.08203 -0.22656,-0.33985 -0.48828,-0.65625 -0.77734,-0.94532 -0.28907,-0.29297 -0.60547,-0.55078 -0.94922,-0.77734 -0.33985,-0.23047 -0.69922,-0.42187 -1.08203,-0.57812 -0.37891,-0.15625 -0.76953,-0.27344 -1.17188,-0.35157 -0.40234,-0.0781 -0.80859,-0.11718 -1.21875,-0.11718 h -62.36328 c -0.41016,0 -0.81641,0.0391 -1.22266,0.11718 -0.40234,0.0781 -0.79296,0.19532 -1.17187,0.35157 -0.37891,0.15625 -0.74219,0.34765 -1.08203,0.57812 -0.33985,0.22656 -0.65625,0.48437 -0.94922,0.77734 -0.28906,0.28907 -0.54688,0.60547 -0.77734,0.94532 -0.22657,0.34375 -0.41797,0.70312 -0.57422,1.08203 -0.15625,0.3789 -0.27344,0.77343 -0.35157,1.17578 -0.082,0.40234 -0.12109,0.80859 -0.11718,1.21875 v 6.22265 h -31.1836 c -0.41015,0 -0.8164,0.0391 -1.21484,0.1211 -0.40234,0.0781 -0.79297,0.19531 -1.17187,0.35547 -0.37891,0.15625 -0.74219,0.34765 -1.08204,0.57422 -0.33984,0.23046 -0.65625,0.48828 -0.94531,0.77734 -0.28906,0.28906 -0.55078,0.60547 -0.77734,0.94531 -0.22656,0.34375 -0.42188,0.70313 -0.57813,1.08203 -0.15625,0.37891 -0.27343,0.76953 -0.35547,1.17188 -0.0781,0.40234 -0.11718,0.80859 -0.11718,1.21875 0,0.41015 0.0391,0.8164 0.11718,1.21875 0.082,0.40234 0.19922,0.79297 0.35547,1.17187 0.15625,0.37891 0.35157,0.73828 0.57813,1.07813 0.22656,0.33984 0.48828,0.65625 0.77734,0.94531 0.28906,0.29297 0.60547,0.55078 0.94531,0.77734 0.33985,0.22657 0.70313,0.42188 1.08204,0.57813 0.3789,0.15625 0.76953,0.27344 1.17187,0.35547 0.39844,0.0781 0.80469,0.12109 1.21484,0.12109 h 12.46875 v 93.56641 c 0,0.61328 0.0312,1.22265 0.0898,1.83203 0.0625,0.61328 0.15234,1.21875 0.26953,1.81641 0.12109,0.60156 0.26953,1.19531 0.44531,1.78125 0.17969,0.58984 0.38672,1.16406 0.62109,1.73046 0.23438,0.56641 0.4961,1.1211 0.78516,1.66016 0.28906,0.53906 0.60156,1.06641 0.94531,1.57422 0.33985,0.51172 0.70313,1.00391 1.09375,1.47656 0.38672,0.47266 0.79688,0.92578 1.23047,1.35938 0.4336,0.43359 0.88672,0.84765 1.36328,1.23437 0.47266,0.39063 0.96485,0.75391 1.47266,1.09375 0.51172,0.33985 1.03516,0.65625 1.57812,0.94531 0.53907,0.28907 1.09375,0.55079 1.66016,0.78516 0.5625,0.23438 1.14063,0.44141 1.72656,0.61719 0.58594,0.17969 1.17969,0.32812 1.78125,0.44531 0.60157,0.12109 1.20703,0.21094 1.81641,0.26953 0.60937,0.0625 1.22266,0.0899 1.83594,0.0899 H 228.5 c 0.61328,0 1.22656,-0.0274 1.83594,-0.0899 0.60937,-0.0586 1.21484,-0.14844 1.8164,-0.26953 0.60157,-0.11719 1.19532,-0.26562 1.78125,-0.44531 0.58594,-0.17578 1.16407,-0.38281 1.73047,-0.61719 0.56641,-0.23437 1.11719,-0.49609 1.66016,-0.78516 0.53906,-0.28906 1.0625,-0.60546 1.57422,-0.94531 0.50781,-0.33984 1,-0.70312 1.47656,-1.09375 0.47266,-0.38672 0.92578,-0.80078 1.35937,-1.23437 0.4336,-0.4336 0.84375,-0.88672 1.23438,-1.35938 0.38672,-0.47265 0.75391,-0.96484 1.09375,-1.47656 0.33984,-0.50781 0.65234,-1.03516 0.94141,-1.57422 0.28906,-0.53906 0.55078,-1.09375 0.78515,-1.66016 0.23438,-0.5664 0.44141,-1.14062 0.6211,-1.73046 0.17578,-0.58594 0.32421,-1.17969 0.44531,-1.78125 0.12109,-0.59766 0.21094,-1.20313 0.26953,-1.81641 0.0586,-0.60938 0.0898,-1.21875 0.0898,-1.83203 v -93.56641 h 12.46875 c 0.41016,0 0.81641,-0.043 1.21875,-0.12109 0.40235,-0.082 0.79297,-0.19922 1.17188,-0.35547 0.3789,-0.15625 0.73828,-0.35156 1.07812,-0.57813 0.33985,-0.22656 0.65625,-0.48437 0.94532,-0.77734 0.29296,-0.28906 0.55078,-0.60547 0.77734,-0.94531 0.23047,-0.33985 0.42187,-0.69922 0.57812,-1.07813 0.15625,-0.3789 0.27344,-0.76953 0.35547,-1.17187 0.0781,-0.40235 0.1211,-0.8086 0.1211,-1.21875 0,-0.41016 -0.043,-0.81641 -0.1211,-1.21875 -0.082,-0.40235 -0.19922,-0.79297 -0.35547,-1.17188 -0.15625,-0.3789 -0.34765,-0.73828 -0.57812,-1.08203 -0.22656,-0.33984 -0.48438,-0.65625 -0.77734,-0.94531 -0.28907,-0.28906 -0.60547,-0.54688 -0.94532,-0.77734 -0.33984,-0.22657 -0.69922,-0.41797 -1.07812,-0.57422 -0.37891,-0.16016 -0.76953,-0.27735 -1.17188,-0.35547 -0.40234,-0.082 -0.80859,-0.1211 -1.21875,-0.1211 z m -24.9375,106.0586 c 0,0.41015 -0.043,0.8125 -0.12109,1.21484 -0.082,0.40235 -0.20313,0.78906 -0.35938,1.16797 -0.15625,0.37891 -0.35156,0.73438 -0.57812,1.07422 -0.23047,0.33984 -0.48828,0.65625 -0.77734,0.94531 -0.28907,0.28516 -0.60547,0.54297 -0.94532,0.77344 -0.33984,0.22656 -0.69922,0.41797 -1.07812,0.57422 -0.37891,0.15625 -0.76953,0.27344 -1.16797,0.35156 -0.40234,0.082 -0.80859,0.12109 -1.21875,0.12109 h -74.85156 c -0.41016,0 -0.81641,-0.0391 -1.21485,-0.12109 -0.40234,-0.0781 -0.79297,-0.19531 -1.17187,-0.35156 -0.375,-0.15625 -0.73438,-0.34766 -1.07813,-0.57422 -0.33984,-0.23047 -0.65234,-0.48828 -0.94531,-0.77344 -0.28906,-0.28906 -0.54687,-0.60547 -0.77734,-0.94531 -0.22657,-0.33984 -0.41797,-0.69531 -0.57813,-1.07422 -0.15625,-0.37891 -0.27734,-0.76562 -0.35547,-1.16797 -0.082,-0.40234 -0.125,-0.80469 -0.125,-1.21484 v -93.56641 h 87.34375 z m 0,0"
         id="path2" />
    </g>
    <path
       style="fill:#ffffff;fill-opacity:1;fill-rule:nonzero;stroke:none"
       d="m 172.35937,232.51953 c 0.41016,0 0.81641,-0.0391 1.21875,-0.11719 0.39844,-0.082 0.78907,-0.19922 1.16797,-0.35547 0.37891,-0.15625 0.73828,-0.34765 1.07813,-0.57421 0.33984,-0.22657 0.65625,-0.48438 0.94531,-0.77344 0.28906,-0.28906 0.54688,-0.60156 0.77734,-0.94141 0.22657,-0.33984 0.42188,-0.69922 0.57813,-1.07812 0.15625,-0.375 0.27734,-0.76563 0.35937,-1.16797 0.0781,-0.39844 0.1211,-0.80469 0.1211,-1.21485 v -49.91796 c 0,-0.41016 -0.0391,-0.81641 -0.11719,-1.21875 -0.082,-0.40235 -0.19922,-0.79297 -0.35547,-1.17188 -0.16015,-0.37891 -0.35156,-0.73828 -0.57812,-1.07812 -0.22657,-0.33985 -0.48828,-0.65625 -0.77735,-0.94532 -0.28906,-0.29297 -0.60547,-0.55078 -0.94531,-0.77734 -0.34375,-0.23047 -0.70312,-0.42188 -1.08203,-0.57813 -0.37891,-0.15625 -0.76953,-0.27734 -1.17188,-0.35546 -0.40234,-0.0781 -0.80859,-0.1211 -1.21875,-0.1211 -0.40625,0 -0.8125,0.043 -1.21484,0.1211 -0.40234,0.0781 -0.79297,0.19921 -1.17187,0.35546 -0.37891,0.15625 -0.74219,0.34766 -1.08204,0.57813 -0.33984,0.22656 -0.65625,0.48437 -0.94531,0.77734 -0.28906,0.28907 -0.55078,0.60547 -0.77734,0.94532 -0.22656,0.33984 -0.42188,0.69921 -0.57813,1.07812 -0.15625,0.37891 -0.27343,0.76953 -0.35547,1.17188 -0.0781,0.40234 -0.11718,0.80859 -0.11718,1.21875 v 49.91796 c 0,0.41016 0.043,0.81641 0.12109,1.21485 0.082,0.40234 0.20313,0.79297 0.35938,1.16797 0.15625,0.3789 0.35156,0.73828 0.57812,1.07812 0.23047,0.33985 0.48828,0.65235 0.77734,0.94141 0.28907,0.28906 0.60547,0.54687 0.94532,0.77344 0.33984,0.22656 0.69922,0.41796 1.07812,0.57421 0.37891,0.15625 0.76953,0.27344 1.16797,0.35547 0.40234,0.0781 0.80859,0.11719 1.21484,0.11719 z m 0,0"
       id="path3" />
    <path
       style="fill:#ffffff;fill-opacity:1;fill-rule:nonzero;stroke:none"
       d="m 209.78906,232.51953 c 0.41016,0 0.8125,-0.0391 1.21485,-0.11719 0.40234,-0.082 0.78906,-0.19922 1.16796,-0.35547 0.37891,-0.15625 0.73829,-0.34765 1.07813,-0.57421 0.33984,-0.22657 0.65625,-0.48438 0.94531,-0.77344 0.28906,-0.28906 0.55078,-0.60156 0.77735,-0.94141 0.23046,-0.33984 0.42187,-0.69922 0.57812,-1.07812 0.16016,-0.375 0.27734,-0.76563 0.35938,-1.16797 0.082,-0.39844 0.12109,-0.80469 0.125,-1.21485 v -49.91796 c 0,-0.41016 -0.043,-0.81641 -0.1211,-1.21875 -0.082,-0.40235 -0.19922,-0.79297 -0.35547,-1.17188 -0.15625,-0.37891 -0.34765,-0.73828 -0.57812,-1.07812 -0.22656,-0.33985 -0.48438,-0.65625 -0.77735,-0.94532 -0.28906,-0.29297 -0.60546,-0.55078 -0.94531,-0.77734 -0.33984,-0.23047 -0.69922,-0.42188 -1.07812,-0.57813 -0.37891,-0.15625 -0.76953,-0.27734 -1.17188,-0.35546 -0.40234,-0.0781 -0.80859,-0.1211 -1.21875,-0.1211 -0.41015,0 -0.8164,0.043 -1.21875,0.1211 -0.40234,0.0781 -0.79297,0.19921 -1.17187,0.35546 -0.37891,0.15625 -0.73828,0.34766 -1.08203,0.57813 -0.33985,0.22656 -0.65625,0.48437 -0.94532,0.77734 -0.28906,0.28907 -0.54687,0.60547 -0.77734,0.94532 -0.22656,0.33984 -0.41797,0.69921 -0.57422,1.07812 -0.16016,0.37891 -0.27734,0.76953 -0.35547,1.17188 -0.082,0.40234 -0.12109,0.80859 -0.12109,1.21875 v 49.91796 c 0,0.41016 0.043,0.81641 0.125,1.21485 0.0781,0.40234 0.19922,0.79297 0.35547,1.16797 0.16015,0.3789 0.35156,0.73828 0.57812,1.07812 0.23047,0.33985 0.48828,0.65235 0.77735,0.94141 0.28906,0.28906 0.60546,0.54687 0.94531,0.77344 0.34375,0.22656 0.69922,0.41796 1.07812,0.57421 0.37891,0.15625 0.76953,0.27344 1.17188,0.35547 0.39844,0.0781 0.80469,0.11719 1.21484,0.11719 z m 0,0"
       id="path4" />
  </g>
</svg>
