<?xml version="1.0" encoding="UTF-8" standalone="no"?>
<svg
   width="200"
   zoomAndPan="magnify"
   viewBox="0 0 150 150"
   height="200"
   preserveAspectRatio="xMidYMid"
   version="1.2"
   id="svg2"
   sodipodi:docname="editB.svg"
   inkscape:version="1.4.2 (f4327f4, 2025-05-13)"
   xmlns:inkscape="http://www.inkscape.org/namespaces/inkscape"
   xmlns:sodipodi="http://sodipodi.sourceforge.net/DTD/sodipodi-0.dtd"
   xmlns="http://www.w3.org/2000/svg"
   xmlns:svg="http://www.w3.org/2000/svg">
  <sodipodi:namedview
     id="namedview2"
     pagecolor="#ffffff"
     bordercolor="#000000"
     borderopacity="0.25"
     inkscape:showpageshadow="2"
     inkscape:pageopacity="0.0"
     inkscape:pagecheckerboard="0"
     inkscape:deskcolor="#d1d1d1"
     inkscape:zoom="2.502"
     inkscape:cx="99.920064"
     inkscape:cy="100.1199"
     inkscape:window-width="2560"
     inkscape:window-height="1511"
     inkscape:window-x="-9"
     inkscape:window-y="1341"
     inkscape:window-maximized="1"
     inkscape:current-layer="svg2" />
  <defs
     id="defs1">
    <clipPath
       id="03da218960">
      <path
         d="m 112.5,112.5 h 150 v 150 h -150 z m 0,0"
         id="path1" />
    </clipPath>
  </defs>
  <g
     id="cfcae81e16"
     transform="translate(-112.5,-112.5)">
    <g
       clip-rule="nonzero"
       clip-path="url(#03da218960)"
       id="g2">
      <path
         style="fill:#ffffff;fill-opacity:1;fill-rule:evenodd;stroke:none"
         d="m 112.5,233 v 25.33203 c 0,2.33594 1.83203,4.16797 4.16797,4.16797 H 142 c 1.08203,0 2.16797,-0.41797 2.91797,-1.25 l 91,-90.91797 -31.25,-31.25 L 113.75,230 c -0.83203,0.83203 -1.25,1.83203 -1.25,3 z m 147.58203,-86.83203 c 3.25,-3.25 3.25,-8.5 0,-11.75 l -19.5,-19.5 c -3.25,-3.25 -8.5,-3.25 -11.75,0 l -15.25,15.25 31.25,31.25 z m 0,0"
         id="path2" />
    </g>
  </g>
</svg>
