<?xml version="1.0" encoding="UTF-8" standalone="no"?>
<svg
   width="169.34895"
   zoomAndPan="magnify"
   viewBox="0 0 127.01171 127.49609"
   height="169.9948"
   preserveAspectRatio="xMidYMid"
   version="1.2"
   id="svg6"
   sodipodi:docname="edit.svg"
   inkscape:version="1.4.2 (f4327f4, 2025-05-13)"
   xmlns:inkscape="http://www.inkscape.org/namespaces/inkscape"
   xmlns:sodipodi="http://sodipodi.sourceforge.net/DTD/sodipodi-0.dtd"
   xmlns="http://www.w3.org/2000/svg"
   xmlns:svg="http://www.w3.org/2000/svg">
  <sodipodi:namedview
     id="namedview6"
     pagecolor="#ffffff"
     bordercolor="#000000"
     borderopacity="0.25"
     inkscape:showpageshadow="2"
     inkscape:pageopacity="0.0"
     inkscape:pagecheckerboard="0"
     inkscape:deskcolor="#d1d1d1"
     showgrid="false"
     inkscape:zoom="3.63"
     inkscape:cx="97.796143"
     inkscape:cy="84.15978"
     inkscape:window-width="3840"
     inkscape:window-height="2054"
     inkscape:window-x="-11"
     inkscape:window-y="-11"
     inkscape:window-maximized="1"
     inkscape:current-layer="svg6" />
  <defs
     id="defs3">
    <clipPath
       id="0c9d4bfb0d">
      <path
         d="m 114.04688,124.37109 h 127.49999 v 127.5 H 114.04688 Z m 0,0"
         id="path1" />
    </clipPath>
    <clipPath
       id="365e85f7cf">
      <path
         d="m 131.26562,124.37109 h 92.57422 c 4.56641,0 8.94532,1.8125 12.17578,5.04297 3.22657,3.22656 5.04297,7.60547 5.04297,12.17188 v 93.0664 c 0,4.56641 -1.8164,8.94532 -5.04297,12.17188 -3.23046,3.23047 -7.60937,5.04297 -12.17578,5.04297 h -92.57422 c -4.5664,0 -8.94531,-1.8125 -12.17578,-5.04297 -3.22656,-3.22656 -5.04296,-7.60547 -5.04296,-12.17188 v -93.0664 c 0,-4.56641 1.8164,-8.94532 5.04296,-12.17188 3.23047,-3.23047 7.60938,-5.04297 12.17578,-5.04297 z m 0,0"
         id="path2" />
    </clipPath>
    <clipPath
       id="1b6c68f461">
      <path
         d="m 126.82813,137.39453 h 101.99999 v 102 H 126.82813 Z m 0,0"
         id="path3" />
    </clipPath>
  </defs>
  <g
     id="43708e46a7"
     transform="translate(-114.04688,-124.37109)">
    <g
       clip-rule="nonzero"
       clip-path="url(#0c9d4bfb0d)"
       id="g5">
      <g
         clip-rule="nonzero"
         clip-path="url(#365e85f7cf)"
         id="g4">
        <path
           style="fill:none;stroke:#ffffff;stroke-width:8;stroke-linecap:butt;stroke-linejoin:miter;stroke-miterlimit:4;stroke-opacity:1"
           d="M 22.998812,0.00198593 H 146.65801 c 6.09974,0 11.94901,2.42110907 16.26422,6.73631907 4.30999,4.309992 6.73632,10.159267 6.73632,16.259001 V 147.31396 c 0,6.09974 -2.42633,11.94901 -6.73632,16.259 -4.31521,4.31521 -10.16448,6.73632 -16.26422,6.73632 H 22.998812 c -6.099735,0 -11.949009,-2.42111 -16.264219,-6.73632 -4.309992,-4.30999 -6.73631938,-10.15926 -6.73631938,-16.259 V 22.997306 c 0,-6.099734 2.42632738,-11.949009 6.73631938,-16.259001 4.31521,-4.31521 10.164484,-6.73631907 16.264219,-6.73631907 z m 0,0"
           transform="matrix(0.748624,0,0,0.748624,114.04817,124.36961)"
           id="path4" />
      </g>
    </g>
    <g
       clip-rule="nonzero"
       clip-path="url(#1b6c68f461)"
       id="g6">
      <path
         style="fill:#ffffff;fill-opacity:1;fill-rule:evenodd;stroke:none"
         d="m 126.82813,219.07812 v 17.17579 c 0,1.58203 1.24218,2.82421 2.82421,2.82421 h 17.17188 c 0.73437,0 1.46875,-0.28125 1.97656,-0.84765 l 61.69141,-61.63281 -21.1875,-21.1836 -61.62891,61.63281 c -0.5664,0.5625 -0.84765,1.24219 -0.84765,2.03125 z m 100.04296,-58.86328 c 2.20313,-2.20312 2.20313,-5.76172 0,-7.96484 l -13.21875,-13.21875 c -2.20312,-2.20313 -5.76172,-2.20313 -7.96484,0 l -10.33594,10.33984 21.1836,21.1836 z m 0,0"
         id="path5" />
    </g>
  </g>
</svg>
