<?xml version="1.0" encoding="UTF-8"?>
<svg id="Layer_1" data-name="Layer 1" xmlns="http://www.w3.org/2000/svg" viewBox="0 0 48 48">
  <defs>
    <style>
      .cls-1 {
        fill: #cfe0f3;
      }

      .cls-1, .cls-2, .cls-3, .cls-4 {
        stroke-width: 0px;
      }

      .cls-2 {
        fill: #00286f;
      }

      .cls-3 {
        fill: #eff3f9;
      }

      .cls-4 {
        fill: #0d3b8d;
      }
    </style>
  </defs>
  <circle class="cls-3" cx="24" cy="24" r="22"/>
  <path class="cls-1" d="M34.069,4.441c4.247,3.843,6.931,9.38,6.931,15.559,0,11.598-9.402,21-21,21-6.178,0-11.716-2.684-15.559-6.931,3.654,7.084,11.038,11.931,19.559,11.931,12.15,0,22-9.85,22-22,0-8.521-4.847-15.904-11.931-19.559Z"/>
  <path class="cls-4" d="M32.181,27.51l6.433,2.09,2.621,8.066c2.981-3.754,4.766-8.5,4.766-13.666,0-.401-.012-.8-.033-1.196l-6.735,4.893-6.44-2.092-2.74-8.433,3.98-5.478h8.207c-2.887-4.271-7.238-7.468-12.33-8.885l2.505,7.709-3.983,5.482h-8.861l-3.983-5.482,2.505-7.709c-5.092,1.417-9.443,4.614-12.33,8.885h8.207s3.98,5.478,3.98,5.478l-2.74,8.433-6.44,2.092-6.735-4.893c-.021.396-.033.794-.033,1.196,0,5.166,1.785,9.912,4.766,13.666l2.621-8.066,6.433-2.09,7.181,5.217v6.764l-6.926,5.032c2.46.951,5.131,1.478,7.926,1.478s5.466-.527,7.926-1.478l-6.926-5.032v-6.764l7.181-5.217Z"/>
  <path class="cls-2" d="M34.119,4.487c3.269,1.697,6.069,4.173,8.12,7.207h-2.953c-1.193-2.765-2.973-5.208-5.167-7.207ZM4.481,34.112c.654,1.257,1.41,2.452,2.285,3.553l.358-1.101c-.951-.741-1.832-1.562-2.642-2.452ZM45.967,22.804l-6.336,4.603c-.292.773-.62,1.527-.997,2.253l2.601,8.005c2.981-3.754,4.766-8.5,4.766-13.666,0-.401-.012-.8-.033-1.196ZM20.991,40.95l-4.917,3.573c2.46.951,5.131,1.478,7.926,1.478s5.466-.527,7.926-1.478l-6.026-4.378c-1.568.459-3.213.726-4.909.805Z"/>
</svg>