<?xml version="1.0" encoding="UTF-8" standalone="no"?>
<svg
   width="152.34375"
   zoomAndPan="magnify"
   viewBox="0 0 114.25781 150"
   height="200"
   preserveAspectRatio="xMidYMid"
   version="1.2"
   id="svg8"
   sodipodi:docname="leaguesTable.svg"
   inkscape:version="1.4.2 (f4327f4, 2025-05-13)"
   xmlns:inkscape="http://www.inkscape.org/namespaces/inkscape"
   xmlns:sodipodi="http://sodipodi.sourceforge.net/DTD/sodipodi-0.dtd"
   xmlns="http://www.w3.org/2000/svg"
   xmlns:svg="http://www.w3.org/2000/svg">
  <sodipodi:namedview
     id="namedview8"
     pagecolor="#ffffff"
     bordercolor="#000000"
     borderopacity="0.25"
     inkscape:showpageshadow="2"
     inkscape:pageopacity="0.0"
     inkscape:pagecheckerboard="0"
     inkscape:deskcolor="#d1d1d1"
     inkscape:zoom="3.63"
     inkscape:cx="76.170799"
     inkscape:cy="99.862259"
     inkscape:window-width="3840"
     inkscape:window-height="2054"
     inkscape:window-x="-11"
     inkscape:window-y="-11"
     inkscape:window-maximized="1"
     inkscape:current-layer="svg8" />
  <defs
     id="defs1">
    <clipPath
       id="3b76d54373">
      <path
         d="m 130,112.5 h 115 v 150 H 130 Z m 0,0"
         id="path1" />
    </clipPath>
  </defs>
  <g
     id="307d9ccdce"
     transform="translate(-130.37109,-112.5)">
    <path
       style="fill:#ffffff;fill-opacity:1;fill-rule:nonzero;stroke:none"
       d="m 207.12109,165.9375 c -1.71875,-1.71875 -4.5,-1.71875 -6.21484,0 -1.71875,1.71484 -1.71875,4.49609 0,6.21484 l 6.21484,6.21094 c 0.85547,0.85938 1.98047,1.28906 3.10547,1.28906 1.125,0 2.25,-0.42968 3.10547,-1.28906 l 12.42969,-12.42578 c 1.71875,-1.71875 1.71875,-4.5 0,-6.21484 -1.71485,-1.71875 -4.4961,-1.71875 -6.21485,0 l -9.32031,9.32031 z m 0,0"
       id="path2" />
    <path
       style="fill:#ffffff;fill-opacity:1;fill-rule:nonzero;stroke:none"
       d="m 219.55078,181.98828 -9.32422,9.32031 -3.10547,-3.10547 c -1.71875,-1.71875 -4.5,-1.71875 -6.21484,0 -1.71875,1.71485 -1.71875,4.4961 0,6.21485 l 6.21484,6.21094 c 0.85547,0.85937 1.98047,1.28906 3.10547,1.28906 1.125,0 2.25,-0.42969 3.10547,-1.28906 l 12.42969,-12.42579 c 1.71875,-1.71875 1.71875,-4.5 0,-6.21484 -1.71485,-1.71875 -4.4961,-1.71875 -6.21094,0 z m 0,0"
       id="path3" />
    <path
       style="fill:#ffffff;fill-opacity:1;fill-rule:nonzero;stroke:none"
       d="m 187.5,164.64844 h -35.15625 c -2.42578,0 -4.39453,1.96875 -4.39453,4.39453 0,2.42578 1.96875,4.39453 4.39453,4.39453 H 187.5 c 2.42578,0 4.39453,-1.96875 4.39453,-4.39453 0,-2.42578 -1.96875,-4.39453 -4.39453,-4.39453 z m 0,0"
       id="path4" />
    <path
       style="fill:#ffffff;fill-opacity:1;fill-rule:nonzero;stroke:none"
       d="m 187.5,186.91406 h -35.15625 c -2.42578,0 -4.39453,1.96875 -4.39453,4.39453 0,2.42578 1.96875,4.39453 4.39453,4.39453 H 187.5 c 2.42578,0 4.39453,-1.96875 4.39453,-4.39453 0,-2.42578 -1.96875,-4.39453 -4.39453,-4.39453 z m 0,0"
       id="path5" />
    <path
       style="fill:#ffffff;fill-opacity:1;fill-rule:nonzero;stroke:none"
       d="m 187.5,209.17969 h -35.15625 c -2.42578,0 -4.39453,1.96875 -4.39453,4.39453 0,2.42578 1.96875,4.39453 4.39453,4.39453 H 187.5 c 2.42578,0 4.39453,-1.96875 4.39453,-4.39453 0,-2.42578 -1.96875,-4.39453 -4.39453,-4.39453 z m 0,0"
       id="path6" />
    <path
       style="fill:#ffffff;fill-opacity:1;fill-rule:nonzero;stroke:none"
       d="m 187.5,231.44531 h -35.15625 c -2.42578,0 -4.39453,1.96875 -4.39453,4.39453 0,2.42578 1.96875,4.39453 4.39453,4.39453 H 187.5 c 2.42578,0 4.39453,-1.96875 4.39453,-4.39453 0,-2.42578 -1.96875,-4.39453 -4.39453,-4.39453 z m 0,0"
       id="path7" />
    <g
       clip-rule="nonzero"
       clip-path="url(#3b76d54373)"
       id="g8">
      <path
         style="fill:#ffffff;fill-opacity:1;fill-rule:nonzero;stroke:none"
         d="m 240.23437,130.07812 h -24.99218 c -1.65625,-3.51171 -5.20703,-5.85937 -9.26953,-5.85937 h -4.05469 l 1.5625,-6.25781 c 0.32812,-1.3125 0.0352,-2.70313 -0.79688,-3.76953 C 201.84766,113.125 200.57031,112.5 199.21875,112.5 h -23.4375 c -1.35156,0 -2.63281,0.625 -3.46484,1.69141 -0.83204,1.0664 -1.125,2.45703 -0.79688,3.76953 l 1.5625,6.25781 h -4.05469 c -4.0625,0 -7.61328,2.34766 -9.26953,5.85937 h -24.99219 c -2.42578,0 -4.39453,1.96875 -4.39453,4.39454 v 123.63281 c 0,2.42578 1.96875,4.39453 4.39453,4.39453 h 105.46875 c 2.42579,0 4.39454,-1.96875 4.39454,-4.39453 V 134.47266 c 0,-2.42579 -1.96875,-4.39454 -4.39454,-4.39454 z m -71.20703,2.92969 h 9.6836 c 1.35156,0 2.6289,-0.625 3.46484,-1.6914 0.83203,-1.06641 1.125,-2.45704 0.79688,-3.76953 l -1.5625,-6.25782 h 12.17968 l -1.5625,6.25782 c -0.32812,1.31249 -0.0352,2.70312 0.79688,3.76953 0.83203,1.0664 2.11328,1.6914 3.46484,1.6914 h 9.6836 c 0.71875,0 1.32812,0.51563 1.44531,1.22266 l 1.26172,7.5664 h -42.35938 l 1.26172,-7.5664 c 0.11719,-0.70703 0.72656,-1.22266 1.44531,-1.22266 z m 66.8125,120.70313 H 139.16016 V 138.86719 h 18.73828 l -1.10157,6.60156 c -0.21093,1.27344 0.14844,2.57812 0.98438,3.5625 0.83203,0.98437 2.05859,1.55469 3.35156,1.55469 h 52.73438 c 1.29297,0 2.51953,-0.57032 3.35156,-1.55469 0.83594,-0.98438 1.19531,-2.28906 0.98437,-3.5625 l -1.10156,-6.60156 h 18.73828 z m 0,0"
         id="path8" />
    </g>
  </g>
</svg>
