<svg xmlns="http://www.w3.org/2000/svg" viewBox="0 0 80 80" width="80" height="80">
  <defs>
    <linearGradient id="g" x1="0" y1="0" x2="0" y2="1">
      <stop offset="0%" stop-color="#38bdf8"/>
      <stop offset="100%" stop-color="#0284c7"/>
    </linearGradient>
  </defs>
  <!-- Trophy cup -->
  <path d="M28 18h24v4c0 10-4 18-12 22-8-4-12-12-12-22z" fill="url(#g)"/>
  <!-- Left handle -->
  <path d="M28 22h-6c-3 0-5 2-5 5s2 7 7 7h4" fill="none" stroke="url(#g)" stroke-width="3" stroke-linecap="round"/>
  <!-- Right handle -->
  <path d="M52 22h6c3 0 5 2 5 5s-2 7-7 7h-4" fill="none" stroke="url(#g)" stroke-width="3" stroke-linecap="round"/>
  <!-- Stem -->
  <rect x="37" y="44" width="6" height="10" rx="2" fill="url(#g)"/>
  <!-- Base -->
  <rect x="28" y="54" width="24" height="6" rx="3" fill="url(#g)"/>
  <!-- Star decoration -->
  <path d="M40 26l2 4 4.5.7-3.3 3.2.8 4.5L40 36l-4 2.4.8-4.5-3.3-3.2 4.5-.7z" fill="#fff" opacity="0.9"/>
</svg>
