<?xml version="1.0" encoding="UTF-8" standalone="no"?>
<svg
   width="169.34895"
   zoomAndPan="magnify"
   viewBox="0 0 127.01171 127.49609"
   height="169.9948"
   preserveAspectRatio="xMidYMid"
   version="1.2"
   id="svg10"
   sodipodi:docname="manage.svg"
   inkscape:version="1.4.2 (f4327f4, 2025-05-13)"
   xmlns:inkscape="http://www.inkscape.org/namespaces/inkscape"
   xmlns:sodipodi="http://sodipodi.sourceforge.net/DTD/sodipodi-0.dtd"
   xmlns="http://www.w3.org/2000/svg"
   xmlns:svg="http://www.w3.org/2000/svg">
  <sodipodi:namedview
     id="namedview10"
     pagecolor="#ffffff"
     bordercolor="#000000"
     borderopacity="0.25"
     inkscape:showpageshadow="2"
     inkscape:pageopacity="0.0"
     inkscape:pagecheckerboard="0"
     inkscape:deskcolor="#d1d1d1"
     inkscape:zoom="2.502"
     inkscape:cx="97.921663"
     inkscape:cy="84.132694"
     inkscape:window-width="2560"
     inkscape:window-height="1511"
     inkscape:window-x="-9"
     inkscape:window-y="1341"
     inkscape:window-maximized="1"
     inkscape:current-layer="svg10" />
  <defs
     id="defs2">
    <clipPath
       id="b9ca00dcaa">
      <path
         d="m 114.04688,124.37109 h 127.49999 v 127.5 H 114.04688 Z m 0,0"
         id="path1" />
    </clipPath>
    <clipPath
       id="943f182505">
      <path
         d="m 131.26562,124.37109 h 92.57422 c 4.56641,0 8.94532,1.8125 12.17578,5.04297 3.22657,3.22656 5.04297,7.60547 5.04297,12.17188 v 93.0664 c 0,4.56641 -1.8164,8.94532 -5.04297,12.17188 -3.23046,3.23047 -7.60937,5.04297 -12.17578,5.04297 h -92.57422 c -4.5664,0 -8.94531,-1.8125 -12.17578,-5.04297 -3.22656,-3.22656 -5.04296,-7.60547 -5.04296,-12.17188 v -93.0664 c 0,-4.56641 1.8164,-8.94532 5.04296,-12.17188 3.23047,-3.23047 7.60938,-5.04297 12.17578,-5.04297 z m 0,0"
         id="path2" />
    </clipPath>
  </defs>
  <g
     id="9d2645c29a"
     transform="translate(-114.04688,-124.37109)">
    <g
       clip-rule="nonzero"
       clip-path="url(#b9ca00dcaa)"
       id="g4">
      <g
         clip-rule="nonzero"
         clip-path="url(#943f182505)"
         id="g3">
        <path
           style="fill:none;stroke:#ffffff;stroke-width:8;stroke-linecap:butt;stroke-linejoin:miter;stroke-miterlimit:4;stroke-opacity:1"
           d="M 22.998812,0.00198593 H 146.65801 c 6.09974,0 11.94901,2.42110907 16.26422,6.73631907 4.30999,4.309992 6.73632,10.159267 6.73632,16.259001 V 147.31396 c 0,6.09974 -2.42633,11.94901 -6.73632,16.259 -4.31521,4.31521 -10.16448,6.73632 -16.26422,6.73632 H 22.998812 c -6.099735,0 -11.949009,-2.42111 -16.264219,-6.73632 -4.309992,-4.30999 -6.73631938,-10.15926 -6.73631938,-16.259 V 22.997306 c 0,-6.099734 2.42632738,-11.949009 6.73631938,-16.259001 4.31521,-4.31521 10.164484,-6.73631907 16.264219,-6.73631907 z m 0,0"
           transform="matrix(0.748624,0,0,0.748624,114.04817,124.36961)"
           id="path3" />
      </g>
    </g>
    <path
       style="fill:#ffffff;fill-opacity:1;fill-rule:nonzero;stroke:none"
       d="m 223.77344,193.93359 v -3.84375 c 0.51172,0 1,-0.20312 1.35937,-0.5625 0.35938,-0.36328 0.5625,-0.85156 0.5625,-1.35937 v -11.53125 c 0,-0.51172 -0.20312,-1 -0.5625,-1.35938 -0.35937,-0.35937 -0.84765,-0.5625 -1.35937,-0.5625 h -10.37891 l -0.37109,-1.44531 c -0.84766,-3.30078 -2.16797,-6.46484 -3.92188,-9.39062 l -0.76953,-1.28516 7.37109,-7.38281 c 0.35547,-0.35547 0.55469,-0.83985 0.55469,-1.34375 0,-0.50391 -0.19922,-0.98828 -0.55469,-1.34375 l -8.16406,-8.17578 c -0.36328,-0.34375 -0.84375,-0.53907 -1.34375,-0.53907 -0.5,0 -0.98437,0.19532 -1.34765,0.53907 l -7.37891,7.38281 -1.28516,-0.76953 c -2.92968,-1.75 -6.09765,-3.07032 -9.40234,-3.92188 l -1.44531,-0.375 v -10.38672 c 0,-0.51172 -0.20313,-1 -0.5625,-1.35937 -0.35938,-0.35938 -0.84766,-0.5625 -1.35938,-0.5625 h -11.53125 c -0.50781,0 -0.99609,0.20312 -1.35937,0.5625 -0.35938,0.35937 -0.5625,0.84765 -0.5625,1.35937 v 10.37891 l -1.44141,0.37109 c -3.30469,0.84766 -6.46484,2.16797 -9.39453,3.91797 l -1.28516,0.76953 -7.3789,-7.36718 c -0.36328,-0.34766 -0.84766,-0.54297 -1.35157,-0.54297 -0.5039,0 -0.98437,0.19531 -1.34765,0.54297 l -8.16406,8.16406 c -0.17969,0.17578 -0.32032,0.38672 -0.41797,0.61719 -0.0937,0.23437 -0.14453,0.48046 -0.14453,0.73437 0,0.25 0.0508,0.49609 0.14453,0.73047 0.0977,0.23047 0.23828,0.44141 0.41797,0.61719 l 7.3789,7.38281 -0.76562,1.28516 c -1.75391,2.92578 -3.07422,6.08984 -3.92188,9.39062 l -0.3789,1.44531 h -10.38672 c -0.50782,0 -0.9961,0.20313 -1.35938,0.5625 -0.35937,0.35938 -0.5625,0.84766 -0.5625,1.35938 v 11.53125 c 0,0.50781 0.20313,0.99609 0.5625,1.35937 0.36328,0.35938 0.85156,0.5625 1.35938,0.5625 v 3.84375 c -1.52735,0 -2.9961,-0.60937 -4.07422,-1.6914 -1.08203,-1.07813 -1.69141,-2.54688 -1.69141,-4.07422 v -11.53125 c 0,-1.53125 0.60938,-2.9961 1.69141,-4.07813 1.07812,-1.08203 2.54687,-1.6875 4.07422,-1.6875 h 7.4375 c 0.79297,-2.66015 1.86328,-5.22265 3.19531,-7.65625 l -5.28516,-5.28515 c -0.53515,-0.53516 -0.95703,-1.16797 -1.24609,-1.86719 -0.28906,-0.69531 -0.44141,-1.44531 -0.44141,-2.19922 0,-0.75781 0.15235,-1.50781 0.44141,-2.20312 0.28906,-0.69922 0.71094,-1.33204 1.24609,-1.86719 l 8.16797,-8.16797 c 1.09766,-1.04688 2.55469,-1.63281 4.07031,-1.63281 1.51563,0 2.97657,0.58593 4.07032,1.63281 l 5.28515,5.28125 c 2.42969,-1.32813 4.9961,-2.40234 7.65235,-3.19141 v -7.4375 c 0,-1.53125 0.60937,-2.99609 1.6914,-4.07812 1.07813,-1.08203 2.54688,-1.6875 4.07422,-1.6875 h 11.53125 c 1.53125,0 2.9961,0.60547 4.07813,1.6875 1.08203,1.08203 1.6875,2.54687 1.6875,4.07812 v 7.4375 c 2.65625,0.79297 5.22265,1.86328 7.65625,3.19532 l 5.28515,-5.28516 c 1.09375,-1.04688 2.55469,-1.63281 4.07032,-1.63281 1.51562,0 2.97265,0.58593 4.0664,1.63281 l 8.16797,8.16406 c 0.53516,0.53516 0.96094,1.17188 1.25,1.86719 0.28906,0.69922 0.4375,1.44922 0.4375,2.20312 0,0.75782 -0.14844,1.50391 -0.4375,2.20313 -0.28906,0.69922 -0.71484,1.33203 -1.25,1.86719 l -5.28516,5.28515 c 1.33204,2.42969 2.40625,4.9961 3.19922,7.65625 h 7.4336 c 1.53125,0 2.99609,0.60547 4.07812,1.6875 1.08203,1.08203 1.6875,2.54688 1.6875,4.07813 v 11.53125 c 0,1.52734 -0.60547,2.99609 -1.6875,4.07422 -1.08203,1.08203 -2.54687,1.6914 -4.07812,1.6914 z m 0,0"
       id="path4" />
    <path
       style="fill:#ffffff;fill-opacity:1;fill-rule:nonzero;stroke:none"
       d="m 204.55469,182.40234 h -3.84375 c 0,-6.11718 -2.42969,-11.98437 -6.75391,-16.30859 -4.32422,-4.32422 -10.19141,-6.75391 -16.30859,-6.75391 -6.11719,0 -11.98047,2.42969 -16.3086,6.75391 -4.32422,4.32422 -6.7539,10.19141 -6.7539,16.30859 h -3.84375 c 0,-7.13672 2.83593,-13.98047 7.88281,-19.02734 5.04297,-5.04688 11.88672,-7.87891 19.02344,-7.87891 7.13672,0 13.98047,2.83203 19.02734,7.87891 5.04688,5.04687 7.87891,11.89062 7.87891,19.02734 z m 0,0"
       id="path5" />
    <path
       style="fill:#ffffff;fill-opacity:1;fill-rule:nonzero;stroke:none"
       d="m 177.64844,197.77734 c -2.28125,0 -4.50782,-0.67578 -6.40625,-1.94531 -1.89453,-1.26562 -3.375,-3.06641 -4.2461,-5.17578 -0.875,-2.10547 -1.10156,-4.42578 -0.65625,-6.66016 0.44532,-2.23828 1.54297,-4.29297 3.15625,-5.90625 1.61328,-1.61328 3.66797,-2.71093 5.90235,-3.15625 2.23828,-0.4414 4.55468,-0.21484 6.66406,0.65625 2.10547,0.875 3.90625,2.35157 5.17578,4.25 1.26563,1.89453 1.94141,4.125 1.94141,6.40625 -0.004,3.05469 -1.21875,5.98828 -3.37891,8.14844 -2.16406,2.16406 -5.09375,3.37891 -8.15234,3.38281 z m 0,-19.21875 c -1.51953,0 -3.00782,0.44922 -4.26953,1.29297 -1.26563,0.84766 -2.25,2.04688 -2.83204,3.45313 -0.58203,1.40234 -0.73437,2.94922 -0.4375,4.4414 0.29688,1.48828 1.02735,2.85938 2.10547,3.9336 1.07422,1.07812 2.44532,1.80859 3.9336,2.10547 1.49218,0.29687 3.03906,0.14453 4.4414,-0.4375 1.40625,-0.58204 2.60547,-1.56641 3.45313,-2.83204 0.84375,-1.26562 1.29297,-2.75 1.29297,-4.26953 0,-2.03906 -0.8086,-3.99609 -2.25,-5.4375 -1.44141,-1.4414 -3.39844,-2.25 -5.4375,-2.25 z m 0,0"
       id="path6" />
    <path
       style="fill:#ffffff;fill-opacity:1;fill-rule:nonzero;stroke:none"
       d="m 210.32031,205.46484 c -2.28125,0 -4.50781,-0.67578 -6.40625,-1.94531 -1.89453,-1.26562 -3.375,-3.06641 -4.24609,-5.17578 -0.875,-2.10547 -1.10156,-4.42578 -0.65625,-6.66016 0.44531,-2.23828 1.54297,-4.29297 3.15625,-5.90625 1.61328,-1.61328 3.66797,-2.71093 5.90234,-3.15625 2.23828,-0.4414 4.55469,-0.21484 6.66406,0.65625 2.10547,0.875 3.90625,2.35157 5.17579,4.25 1.26562,1.89453 1.9414,4.125 1.9414,6.40625 -0.004,3.05469 -1.21875,5.98828 -3.3789,8.14844 -2.16407,2.16406 -5.09375,3.37891 -8.15235,3.38281 z m 0,-19.21875 c -1.51953,0 -3.00781,0.44922 -4.26953,1.29297 -1.26562,0.84766 -2.25,2.04688 -2.83203,3.45313 -0.58203,1.40234 -0.73438,2.94922 -0.4375,4.4414 0.29687,1.48828 1.02734,2.85938 2.10547,3.9336 1.07422,1.07812 2.44531,1.80859 3.93359,2.10547 1.49219,0.29687 3.03906,0.14453 4.44141,-0.4375 1.40625,-0.58204 2.60547,-1.56641 3.45312,-2.83204 0.84375,-1.26562 1.29297,-2.75 1.29297,-4.26953 0,-2.03906 -0.80859,-3.99609 -2.25,-5.4375 -1.4414,-1.4414 -3.39844,-2.25 -5.4375,-2.25 z m 0,0"
       id="path7" />
    <path
       style="fill:#ffffff;fill-opacity:1;fill-rule:nonzero;stroke:none"
       d="m 144.97656,205.46484 c -2.28125,0 -4.50781,-0.67578 -6.40625,-1.94531 -1.89453,-1.26562 -3.375,-3.06641 -4.24609,-5.17578 -0.875,-2.10547 -1.10156,-4.42578 -0.65625,-6.66016 0.44531,-2.23828 1.54297,-4.29297 3.15625,-5.90625 1.61328,-1.61328 3.66797,-2.71093 5.90234,-3.15625 2.23828,-0.4414 4.55469,-0.21484 6.66406,0.65625 2.10547,0.875 3.90625,2.35157 5.17579,4.25 1.26562,1.89453 1.9414,4.125 1.9414,6.40625 -0.004,3.05469 -1.21875,5.98828 -3.3789,8.14844 -2.16407,2.16406 -5.09375,3.37891 -8.15235,3.38281 z m 0,-19.21875 c -1.51953,0 -3.00781,0.44922 -4.26953,1.29297 -1.26562,0.84766 -2.25,2.04688 -2.83203,3.45313 -0.58203,1.40234 -0.73438,2.94922 -0.4375,4.4414 0.29687,1.48828 1.02734,2.85938 2.10547,3.9336 1.07422,1.07812 2.44531,1.80859 3.93359,2.10547 1.49219,0.29687 3.03906,0.14453 4.44141,-0.4375 1.40625,-0.58204 2.60547,-1.56641 3.45312,-2.83204 0.84375,-1.26562 1.29297,-2.75 1.29297,-4.26953 0,-2.03906 -0.80859,-3.99609 -2.25,-5.4375 -1.4414,-1.4414 -3.39844,-2.25 -5.4375,-2.25 z m 0,0"
       id="path8" />
    <path
       style="fill:#ffffff;fill-opacity:1;fill-rule:nonzero;stroke:none"
       d="m 227.74609,210.39453 c -2.86718,-1.96875 -6.26172,-3.01953 -9.73828,-3.00781 h -15.375 c -0.93359,0.008 -1.86719,0.0937 -2.78906,0.2539 -1.23047,-1.92578 -2.82813,-3.58593 -4.70703,-4.88281 -0.28125,-0.21484 -0.57422,-0.40625 -0.88281,-0.57812 -2.69141,-1.62891 -5.77344,-2.48438 -8.91797,-2.48047 h -15.375 c -2.89063,-0.0117 -5.73828,0.71094 -8.27344,2.10156 -2.53516,1.38672 -4.67969,3.39844 -6.22656,5.83984 -0.92578,-0.16015 -1.85938,-0.24609 -2.79688,-0.2539 h -15.375 c -3.47265,-0.0117 -6.86719,1.03906 -9.73047,3.0039 -2.32812,1.58594 -4.23828,3.71875 -5.55468,6.20704 -1.32032,2.49218 -2.00782,5.26562 -2.01172,8.08593 v 7.6875 c 0.004,2.57032 0.74219,5.08594 2.1289,7.25 1.38672,2.16407 3.36329,3.88282 5.69922,4.96094 1.75781,0.82813 3.67969,1.25391 5.625,1.24219 h 19.21875 v -3.84375 h -17.29687 v -21.14063 h -3.84375 v 20.94922 c -0.72266,-0.14844 -1.42578,-0.38281 -2.09375,-0.69922 -1.66406,-0.76562 -3.07813,-1.99609 -4.07031,-3.54297 -0.99219,-1.54296 -1.51954,-3.33984 -1.52344,-5.17578 v -7.6875 c 0.004,-2.19531 0.54297,-4.35547 1.5664,-6.29297 1.02735,-1.9375 2.51172,-3.59375 4.32813,-4.82812 2.22265,-1.52734 4.85937,-2.33984 7.55859,-2.33203 h 15.375 c 0.33985,0 0.66406,0.0352 0.9961,0.0586 -0.64844,1.83203 -0.98829,3.76172 -0.9961,5.70703 v 19.21875 c 0.004,2.54688 1.01563,4.98828 2.82031,6.78907 1.80079,1.80468 4.24219,2.8164 6.78907,2.82031 h 5.76562 v -30.75 h -3.84375 v 26.90625 h -1.92187 c -1.52735,0 -2.9961,-0.60938 -4.07422,-1.69141 -1.08203,-1.07812 -1.69141,-2.54687 -1.69141,-4.07422 V 216.9961 c 0,-3.57031 1.41797,-6.99218 3.94141,-9.51562 2.52344,-2.51953 5.94531,-3.9375 9.51172,-3.9375 h 15.375 c 2.47265,0 4.89843,0.68359 7.00781,1.97656 0.19141,0.10547 0.38281,0.22656 0.55859,0.35938 1.80078,1.23437 3.28125,2.8789 4.3086,4.80468 1.03515,1.94141 1.57812,4.10938 1.57812,6.3125 v 19.21875 c 0,1.52735 -0.60547,2.9961 -1.6875,4.07422 -1.08203,1.08203 -2.54687,1.69141 -4.07812,1.69141 h -1.92188 v -26.90625 h -3.84375 v 30.75 h 5.76563 c 2.54687,-0.004 4.99218,-1.01563 6.79297,-2.82031 1.80078,-1.80079 2.8125,-4.24219 2.8164,-6.78907 V 216.9961 c -0.008,-1.94531 -0.34375,-3.875 -0.99219,-5.70703 0.32813,-0.0234 0.65625,-0.0586 0.99219,-0.0586 h 15.375 c 2.70313,-0.008 5.33985,0.80859 7.56641,2.33594 1.8125,1.23437 3.29687,2.89062 4.32031,4.82812 1.02734,1.9375 1.56641,4.09766 1.56641,6.28906 v 7.6875 c -0.004,1.83985 -0.53516,3.64453 -1.53125,5.19141 -1,1.55078 -2.41797,2.78125 -4.09375,3.54297 -0.65625,0.3125 -1.35157,0.53906 -2.0625,0.68359 v -20.94922 h -3.84375 v 21.14063 h -17.29688 v 3.84375 h 19.21875 c 1.9336,0.0117 3.84375,-0.40625 5.59375,-1.22656 2.34375,-1.07422 4.32813,-2.79688 5.72266,-4.96485 1.39062,-2.16406 2.13281,-4.6875 2.13672,-7.26172 v -7.6875 c 0,-2.8164 -0.69141,-5.59375 -2.00782,-8.08203 -1.3164,-2.48828 -3.22265,-4.62109 -5.55078,-6.20703 z m 0,0"
       id="path9" />
    <path
       style="fill:#ffffff;fill-opacity:1;fill-rule:nonzero;stroke:none"
       d="m 185.33594,241.98047 h -15.375 v 3.84375 h 15.375 z m 0,0"
       id="path10" />
  </g>
</svg>
