<?xml version="1.0" encoding="UTF-8" standalone="no"?>
<svg
   width="169.34895"
   zoomAndPan="magnify"
   viewBox="0 0 127.01171 127.49609"
   height="169.9948"
   preserveAspectRatio="xMidYMid"
   version="1.2"
   id="svg8"
   sodipodi:docname="matchhist.svg"
   inkscape:version="1.4.2 (f4327f4, 2025-05-13)"
   xmlns:inkscape="http://www.inkscape.org/namespaces/inkscape"
   xmlns:sodipodi="http://sodipodi.sourceforge.net/DTD/sodipodi-0.dtd"
   xmlns="http://www.w3.org/2000/svg"
   xmlns:svg="http://www.w3.org/2000/svg">
  <sodipodi:namedview
     id="namedview8"
     pagecolor="#ffffff"
     bordercolor="#000000"
     borderopacity="0.25"
     inkscape:showpageshadow="2"
     inkscape:pageopacity="0.0"
     inkscape:pagecheckerboard="0"
     inkscape:deskcolor="#d1d1d1"
     inkscape:zoom="2.502"
     inkscape:cx="97.921663"
     inkscape:cy="84.132694"
     inkscape:window-width="2560"
     inkscape:window-height="1511"
     inkscape:window-x="-9"
     inkscape:window-y="1341"
     inkscape:window-maximized="1"
     inkscape:current-layer="svg8" />
  <defs
     id="defs4">
    <clipPath
       id="404cc8f9d3">
      <path
         d="m 114.04688,124.37109 h 127.49999 v 127.5 H 114.04688 Z m 0,0"
         id="path1" />
    </clipPath>
    <clipPath
       id="d8fa7e80d1">
      <path
         d="m 131.26562,124.37109 h 92.57422 c 4.56641,0 8.94532,1.8125 12.17578,5.04297 3.22657,3.22656 5.04297,7.60547 5.04297,12.17188 v 93.0664 c 0,4.56641 -1.8164,8.94532 -5.04297,12.17188 -3.23046,3.23047 -7.60937,5.04297 -12.17578,5.04297 h -92.57422 c -4.5664,0 -8.94531,-1.8125 -12.17578,-5.04297 -3.22656,-3.22656 -5.04296,-7.60547 -5.04296,-12.17188 v -93.0664 c 0,-4.56641 1.8164,-8.94532 5.04296,-12.17188 3.23047,-3.23047 7.60938,-5.04297 12.17578,-5.04297 z m 0,0"
         id="path2" />
    </clipPath>
    <clipPath
       id="f051ef6e78">
      <path
         d="m 158,153 h 68.27344 v 81 H 158 Z m 0,0"
         id="path3" />
    </clipPath>
    <clipPath
       id="7d63fda9e1">
      <path
         d="m 129,129.125 h 79 V 246 h -79 z m 0,0"
         id="path4" />
    </clipPath>
  </defs>
  <g
     id="ac4b032212"
     transform="translate(-114.04688,-124.37109)">
    <g
       clip-rule="nonzero"
       clip-path="url(#404cc8f9d3)"
       id="g6">
      <g
         clip-rule="nonzero"
         clip-path="url(#d8fa7e80d1)"
         id="g5">
        <path
           style="fill:none;stroke:#ffffff;stroke-width:8;stroke-linecap:butt;stroke-linejoin:miter;stroke-miterlimit:4;stroke-opacity:1"
           d="M 22.998812,0.00198593 H 146.65801 c 6.09974,0 11.94901,2.42110907 16.26422,6.73631907 4.30999,4.309992 6.73632,10.159267 6.73632,16.259001 V 147.31396 c 0,6.09974 -2.42633,11.94901 -6.73632,16.259 -4.31521,4.31521 -10.16448,6.73632 -16.26422,6.73632 H 22.998812 c -6.099735,0 -11.949009,-2.42111 -16.264219,-6.73632 -4.309992,-4.30999 -6.73631938,-10.15926 -6.73631938,-16.259 V 22.997306 c 0,-6.099734 2.42632738,-11.949009 6.73631938,-16.259001 4.31521,-4.31521 10.164484,-6.73631907 16.264219,-6.73631907 z m 0,0"
           transform="matrix(0.748624,0,0,0.748624,114.04817,124.36961)"
           id="path5" />
      </g>
    </g>
    <g
       clip-rule="nonzero"
       clip-path="url(#f051ef6e78)"
       id="g7">
      <path
         style="fill:#ffffff;fill-opacity:1;fill-rule:nonzero;stroke:none"
         d="m 216.39062,199.51172 c 0.008,0.78125 -0.0195,1.5664 -0.0859,2.34765 -0.0664,0.78125 -0.16797,1.5586 -0.3086,2.32813 -0.14062,0.77344 -0.32031,1.53516 -0.53515,2.28906 -0.21485,0.75391 -0.46485,1.4961 -0.75391,2.22656 -0.28516,0.73047 -0.60547,1.44532 -0.96094,2.14454 -0.35937,0.69921 -0.74609,1.3789 -1.16797,2.04296 -0.42187,0.66016 -0.875,1.30079 -1.35937,1.91797 -0.48438,0.61719 -0.99609,1.21094 -1.53516,1.77735 -0.54297,0.5664 -1.10937,1.10937 -1.70312,1.62109 -0.59375,0.51563 -1.20703,0.99609 -1.84766,1.44922 -0.64062,0.45312 -1.30078,0.875 -1.98047,1.26562 -0.68359,0.39063 -1.3789,0.7461 -2.09765,1.06641 -0.71485,0.32422 -1.44141,0.60938 -2.1875,0.86328 -0.74219,0.25 -1.4961,0.46485 -2.25782,0.64453 -0.76562,0.17969 -1.53515,0.32032 -2.3125,0.42188 -0.77734,0.10547 -1.55859,0.17187 -2.34375,0.19922 -0.78125,0.0312 -1.5664,0.0195 -2.34765,-0.0273 -0.78516,-0.0469 -1.5625,-0.13281 -2.33594,-0.2539 -0.77734,-0.125 -1.54297,-0.28125 -2.30078,-0.48047 -0.76172,-0.19531 -1.50781,-0.42969 -2.24609,-0.69922 -0.73829,-0.26953 -1.45704,-0.57422 -2.16797,-0.91016 -0.70703,-0.33984 -1.39453,-0.71484 -2.06641,-1.11718 -0.67187,-0.40625 -1.32031,-0.84375 -1.94922,-1.3125 -0.6289,-0.46875 -1.23437,-0.96875 -1.8164,-1.4961 -0.57813,-0.52734 -1.13282,-1.08203 -1.66016,-1.66015 -0.52734,-0.58204 -1.02734,-1.1875 -1.49609,-1.81641 -0.46875,-0.62891 -0.90625,-1.27734 -1.3086,-1.94922 -0.40625,-0.67187 -0.78125,-1.35937 -1.11719,-2.06641 -0.33984,-0.71093 -0.64453,-1.42968 -0.91406,-2.16796 -0.26953,-0.73829 -0.5039,-1.48438 -0.69922,-2.2461 -0.19531,-0.75781 -0.35547,-1.52344 -0.48047,-2.30078 -0.12109,-0.77344 -0.20703,-1.55078 -0.2539,-2.33594 -0.0469,-0.78125 -0.0547,-1.5664 -0.0273,-2.34765 0.0273,-0.78516 0.0937,-1.56641 0.19922,-2.34375 0.10547,-0.77735 0.2461,-1.54688 0.42188,-2.3125 0.17969,-0.76172 0.39453,-1.51563 0.64844,-2.25782 0.25,-0.74609 0.53515,-1.47265 0.85937,-2.1875 0.32031,-0.71875 0.67578,-1.41406 1.06641,-2.09765 0.39062,-0.67969 0.8125,-1.33985 1.26562,-1.98047 0.45313,-0.64063 0.9375,-1.25391 1.44922,-1.84766 0.51563,-0.59375 1.05469,-1.16015 1.62109,-1.70312 0.57032,-0.53906 1.16407,-1.05078 1.78125,-1.53516 0.61719,-0.48437 1.25782,-0.9375 1.91797,-1.35937 0.66016,-0.42188 1.33985,-0.8086 2.03907,-1.16407 0.69921,-0.35937 1.41406,-0.67968 2.14453,-0.96484 0.73047,-0.28906 1.47265,-0.53906 2.22656,-0.75391 0.75391,-0.21484 1.51953,-0.39062 2.28906,-0.53515 0.77344,-0.14063 1.54688,-0.24219 2.33203,-0.3086 l -5.15625,5.20313 6.8086,6.8125 17.07422,-17.07422 -17.07422,-17.07422 -6.8086,6.8086 5.4961,5.54687 c -1.09375,0.0625 -2.17969,0.17578 -3.26172,0.34375 -1.08203,0.16406 -2.15235,0.38672 -3.21485,0.65625 -1.05859,0.26953 -2.10156,0.59375 -3.13281,0.96484 -1.02734,0.3711 -2.03515,0.79297 -3.02344,1.26563 -0.98828,0.46875 -1.95312,0.98437 -2.89062,1.55078 -0.9375,0.5625 -1.84375,1.17188 -2.72266,1.82422 -0.8789,0.64844 -1.72656,1.34375 -2.53906,2.07812 -0.80859,0.73438 -1.58203,1.50391 -2.32031,2.31641 -0.73828,0.80859 -1.4336,1.65234 -2.08594,2.52734 -0.65625,0.875 -1.26562,1.78516 -1.83203,2.71875 -0.56641,0.9375 -1.08594,1.89844 -1.5625,2.88672 -0.47266,0.98438 -0.89453,1.99219 -1.27344,3.01953 -0.375,1.02735 -0.69922,2.07032 -0.97265,3.13282 -0.27344,1.05859 -0.4961,2.1289 -0.66797,3.21093 -0.16797,1.07813 -0.28516,2.16407 -0.35157,3.25782 -0.0664,1.09375 -0.0742,2.1875 -0.0352,3.27734 0.043,1.09375 0.13672,2.18359 0.28515,3.26953 0.14454,1.08203 0.34375,2.16016 0.59766,3.22266 0.25,1.0664 0.55078,2.11719 0.90625,3.15234 0.35156,1.03516 0.75781,2.05078 1.20703,3.04688 0.45313,0.99609 0.95313,1.96875 1.5,2.91797 0.54688,0.94921 1.13672,1.86718 1.77344,2.75781 0.63672,0.89062 1.3125,1.74609 2.03125,2.57422 0.71875,0.82422 1.47656,1.60937 2.27344,2.36328 0.79687,0.75 1.625,1.46094 2.49218,2.13281 0.86329,0.66797 1.75782,1.29688 2.6836,1.87891 0.92578,0.58593 1.8789,1.12109 2.85547,1.61328 0.97656,0.49219 1.97656,0.93359 3,1.32812 1.01953,0.39453 2.05468,0.73828 3.10937,1.03125 1.05469,0.29297 2.1211,0.53516 3.19922,0.72657 1.07813,0.1914 2.16016,0.32812 3.25391,0.41015 1.08984,0.0859 2.18359,0.11719 3.27734,0.0977 1.09375,-0.0234 2.18359,-0.0977 3.26953,-0.22266 1.08985,-0.1289 2.16797,-0.30859 3.23438,-0.53906 1.07031,-0.23438 2.125,-0.51563 3.16797,-0.85156 1.04296,-0.33594 2.0664,-0.71875 3.07031,-1.15235 1.0039,-0.43359 1.98437,-0.91406 2.94531,-1.44531 0.95703,-0.52734 1.88672,-1.10156 2.78906,-1.72266 0.90235,-0.62109 1.76953,-1.28125 2.60938,-1.98437 0.83594,-0.70313 1.64062,-1.44922 2.40625,-2.23047 0.76562,-0.78125 1.48828,-1.59766 2.17578,-2.44922 0.6875,-0.85156 1.33203,-1.73828 1.92969,-2.65234 0.60156,-0.91406 1.15625,-1.85547 1.66406,-2.82422 0.51172,-0.96875 0.97266,-1.96094 1.38281,-2.97266 0.41406,-1.01562 0.77735,-2.04687 1.08985,-3.09375 0.3125,-1.05078 0.57421,-2.10937 0.78515,-3.18359 0.20703,-1.07422 0.36328,-2.15625 0.46875,-3.24609 0.10547,-1.08985 0.15625,-2.17969 0.15625,-3.27344 z m 0,0"
         id="path6" />
    </g>
    <path
       style="fill:#ffffff;fill-opacity:1;fill-rule:nonzero;stroke:none"
       d="m 187.44922,214.00391 h 9.6289 v -12.5 l 8.26954,-8.26954 -6.85938,-6.80859 -11.03906,11.08984 z m 0,0"
       id="path7" />
    <g
       clip-rule="nonzero"
       clip-path="url(#7d63fda9e1)"
       id="g8">
      <path
         style="fill:#ffffff;fill-opacity:1;fill-rule:nonzero;stroke:none"
         d="m 182.77734,236.13672 h -43.19531 c -0.16016,0 -0.29687,-0.0547 -0.41016,-0.16797 C 139.05469,235.85156 139,235.71484 139,235.55469 V 139.4375 c 0,-0.16406 0.0547,-0.30078 0.17187,-0.41406 0.11329,-0.11328 0.25,-0.17188 0.41016,-0.17188 h 9.14453 v 6.375 c 0,0.53906 0.0547,1.07422 0.16016,1.60156 0.10547,0.53125 0.26172,1.04297 0.46875,1.54297 0.20312,0.5 0.45703,0.97266 0.75781,1.42188 0.30078,0.44922 0.64063,0.86328 1.02344,1.24609 0.38281,0.37891 0.79687,0.72266 1.24609,1.01953 0.44922,0.30078 0.92188,0.55469 1.42188,0.76172 0.49609,0.20703 1.01172,0.36328 1.53906,0.46875 0.53125,0.10547 1.06641,0.15625 1.60547,0.15625 h 22.47265 c 0.53907,0 1.07422,-0.0508 1.60157,-0.15625 0.53125,-0.10547 1.04687,-0.26172 1.54297,-0.46875 0.5,-0.20703 0.97265,-0.46094 1.42187,-0.76172 0.44922,-0.29687 0.86328,-0.64062 1.24609,-1.01953 0.38282,-0.38281 0.72266,-0.79687 1.02344,-1.24609 0.30078,-0.44922 0.55078,-0.92188 0.75781,-1.42188 0.20704,-0.5 0.36329,-1.01172 0.46875,-1.54297 0.10547,-0.52734 0.15625,-1.0625 0.15625,-1.60156 v -6.375 h 9.14454 c 0.16406,0 0.30078,0.0586 0.41406,0.17188 0.11328,0.11328 0.17187,0.25 0.17187,0.41406 v 14.00781 h 9.72657 V 139.4375 c 0,-0.67969 -0.0664,-1.34766 -0.19532,-2.01172 -0.13281,-0.66406 -0.32812,-1.30859 -0.58984,-1.93359 -0.25781,-0.62891 -0.57422,-1.22266 -0.94922,-1.78516 -0.37891,-0.5625 -0.80469,-1.08203 -1.28516,-1.5625 -0.47656,-0.48047 -1,-0.90625 -1.5625,-1.28125 -0.5625,-0.37891 -1.15625,-0.69531 -1.78125,-0.95312 -0.625,-0.26172 -1.26953,-0.45704 -1.93359,-0.58594 -0.66797,-0.13281 -1.33594,-0.19922 -2.01562,-0.19922 h -57.20313 c -0.67578,0 -1.34766,0.0664 -2.01172,0.19922 -0.66406,0.1289 -1.30859,0.32422 -1.93359,0.58594 -0.625,0.25781 -1.21875,0.57421 -1.78125,0.95312 -0.5625,0.375 -1.08594,0.80078 -1.5625,1.28125 -0.48047,0.48047 -0.90625,1 -1.28516,1.5625 -0.375,0.5625 -0.6914,1.15625 -0.95312,1.78516 -0.25782,0.625 -0.45313,1.26953 -0.58594,1.93359 -0.13281,0.66406 -0.19922,1.33203 -0.19922,2.01172 v 96.11719 c 0,0.67578 0.0664,1.34765 0.19922,2.01172 0.13281,0.66406 0.32812,1.30859 0.58594,1.93359 0.26172,0.625 0.57812,1.21875 0.95312,1.78516 0.37891,0.5625 0.80469,1.08203 1.28516,1.5625 0.47656,0.47656 1,0.90625 1.5625,1.28125 0.5625,0.375 1.15625,0.69531 1.78125,0.95312 0.625,0.25781 1.26953,0.45313 1.93359,0.58594 0.66406,0.13281 1.33594,0.19922 2.01172,0.19922 h 57.20313 c 0.65625,0 1.30078,-0.0586 1.94531,-0.1836 0.64062,-0.12109 1.26562,-0.30078 1.87109,-0.54297 0.60938,-0.24218 1.1875,-0.53515 1.73828,-0.88671 0.55078,-0.35157 1.06641,-0.75 1.53907,-1.19922 0.47656,-0.44922 0.90625,-0.9375 1.28906,-1.46485 0.3789,-0.53125 0.71094,-1.09375 0.98437,-1.68359 0.27735,-0.59375 0.49219,-1.20703 0.65235,-1.83984 0.16015,-0.63282 0.25781,-1.27735 0.29297,-1.92969 z m -24.32031,-97.28516 h 19.45703 v 4.86719 h -19.45703 z m 0,0"
         id="path8" />
    </g>
  </g>
</svg>
