<?xml version="1.0" encoding="UTF-8" standalone="no"?>
<svg
   width="177.9948"
   zoomAndPan="magnify"
   viewBox="0 0 133.4961 131.03906"
   height="174.71875"
   preserveAspectRatio="xMidYMid"
   version="1.2"
   id="svg13"
   sodipodi:docname="Players.svg"
   inkscape:version="1.4.2 (f4327f4, 2025-05-13)"
   xmlns:inkscape="http://www.inkscape.org/namespaces/inkscape"
   xmlns:sodipodi="http://sodipodi.sourceforge.net/DTD/sodipodi-0.dtd"
   xmlns="http://www.w3.org/2000/svg"
   xmlns:svg="http://www.w3.org/2000/svg">
  <sodipodi:namedview
     id="namedview13"
     pagecolor="#ffffff"
     bordercolor="#000000"
     borderopacity="0.25"
     inkscape:showpageshadow="2"
     inkscape:pageopacity="0.0"
     inkscape:pagecheckerboard="0"
     inkscape:deskcolor="#d1d1d1"
     inkscape:zoom="2.502"
     inkscape:cx="101.51878"
     inkscape:cy="85.331735"
     inkscape:window-width="2560"
     inkscape:window-height="1511"
     inkscape:window-x="-9"
     inkscape:window-y="1341"
     inkscape:window-maximized="1"
     inkscape:current-layer="svg13" />
  <defs
     id="defs3">
    <clipPath
       id="6ece9477d3">
      <path
         d="m 111.10156,123.38672 h 133.4961 v 131.25 h -133.4961 z m 0,0"
         id="path1" />
    </clipPath>
    <clipPath
       id="9220b3ee88">
      <path
         d="m 128.33203,123.38672 h 99.03125 c 4.57031,0 8.95703,1.81641 12.1875,5.04687 3.23047,3.23047 5.04688,7.61328 5.04688,12.1836 v 96.57812 c 0,4.57031 -1.81641,8.95313 -5.04688,12.1836 -3.23047,3.23437 -7.61719,5.04687 -12.1875,5.04687 h -99.03125 c -4.57031,0 -8.95312,-1.8125 -12.18359,-5.04687 -3.23047,-3.23047 -5.04688,-7.61329 -5.04688,-12.1836 v -96.57812 c 0,-4.57032 1.81641,-8.95313 5.04688,-12.1836 3.23047,-3.23046 7.61328,-5.04687 12.18359,-5.04687 z m 0,0"
         id="path2" />
    </clipPath>
    <clipPath
       id="fc4fa5ff1a">
      <path
         d="M 116.23438,171 H 239 v 48 H 116.23438 Z m 0,0"
         id="path3" />
    </clipPath>
  </defs>
  <g
     id="186c66634a"
     transform="translate(-111.10156,-123.38672)">
    <g
       clip-rule="nonzero"
       clip-path="url(#6ece9477d3)"
       id="g5">
      <g
         clip-rule="nonzero"
         clip-path="url(#9220b3ee88)"
         id="g4">
        <path
           style="fill:none;stroke:#ffffff;stroke-width:8;stroke-linecap:butt;stroke-linejoin:miter;stroke-miterlimit:4;stroke-opacity:1"
           d="M 22.996739,5.57941e-4 H 155.16591 c 6.09964,0 11.95424,2.424214059 16.2657,6.735665059 4.31145,4.311451 6.73566,10.160844 6.73566,16.260479 V 151.89188 c 0,6.09964 -2.42421,11.94903 -6.73566,16.26048 -4.31146,4.31667 -10.16606,6.74088 -16.2657,6.74088 H 22.996739 c -6.099635,0 -11.949028,-2.42421 -16.260479,-6.74088 C 2.424809,163.84091 5.95369e-4,157.99152 5.95369e-4,151.89188 V 22.996702 C 5.95369e-4,16.897067 2.424809,11.047674 6.73626,6.736223 11.047711,2.424772 16.897104,5.57941e-4 22.996739,5.57941e-4 Z m 0,0"
           transform="matrix(0.749276,0,0,0.749276,111.10112,123.3863)"
           id="path4" />
      </g>
    </g>
    <path
       style="fill:#ffffff;fill-opacity:1;fill-rule:nonzero;stroke:none"
       d="m 217.26953,140.75781 c 0,0.76953 -0.0781,1.53125 -0.22656,2.28516 -0.14844,0.7539 -0.3711,1.48828 -0.66797,2.19922 -0.29297,0.71093 -0.65234,1.38672 -1.08203,2.02734 -0.42578,0.63672 -0.91406,1.23047 -1.45703,1.77344 -0.54297,0.54297 -1.13672,1.03125 -1.77735,1.45703 -0.63672,0.42969 -1.3125,0.78906 -2.02343,1.08203 -0.71094,0.29688 -1.44532,0.51953 -2.19922,0.66797 -0.75391,0.15234 -1.51563,0.22656 -2.28516,0.22656 -0.76953,0 -1.53125,-0.0742 -2.28906,-0.22656 -0.75391,-0.14844 -1.48438,-0.37109 -2.19531,-0.66797 -0.71094,-0.29297 -1.38672,-0.65234 -2.02735,-1.08203 -0.64062,-0.42578 -1.23047,-0.91406 -1.77734,-1.45703 -0.54297,-0.54297 -1.02735,-1.13672 -1.45703,-1.77344 -0.42578,-0.64062 -0.78907,-1.31641 -1.08203,-2.02734 -0.29297,-0.71094 -0.51563,-1.44532 -0.66797,-2.19922 -0.14844,-0.75391 -0.22266,-1.51563 -0.22266,-2.28516 0,-0.76953 0.0742,-1.53125 0.22266,-2.28515 0.15234,-0.75782 0.375,-1.48829 0.66797,-2.19922 0.29296,-0.71094 0.65625,-1.38672 1.08203,-2.02735 0.42968,-0.64062 0.91406,-1.23047 1.45703,-1.77734 0.54687,-0.54297 1.13672,-1.02734 1.77734,-1.45703 0.64063,-0.42578 1.31641,-0.78516 2.02735,-1.08203 0.71093,-0.29297 1.4414,-0.51563 2.19531,-0.66797 0.75781,-0.14844 1.51953,-0.22266 2.28906,-0.22266 0.76953,0 1.53125,0.0742 2.28516,0.22266 0.7539,0.15234 1.48828,0.375 2.19922,0.66797 0.71093,0.29687 1.38671,0.65625 2.02343,1.08203 0.64063,0.42969 1.23438,0.91406 1.77735,1.45703 0.54297,0.54687 1.03125,1.13672 1.45703,1.77734 0.42969,0.64063 0.78906,1.31641 1.08203,2.02735 0.29687,0.71093 0.51953,1.4414 0.66797,2.19922 0.14844,0.7539 0.22656,1.51562 0.22656,2.28515 z m 0,0"
       id="path5" />
    <path
       style="fill:#ffffff;fill-opacity:1;fill-rule:nonzero;stroke:none"
       d="m 161.01953,140.75781 c 0,0.76953 -0.0781,1.53125 -0.22656,2.28516 -0.14844,0.7539 -0.3711,1.48828 -0.66797,2.19922 -0.29297,0.71093 -0.65234,1.38672 -1.08203,2.02734 -0.42578,0.63672 -0.91406,1.23047 -1.45703,1.77344 -0.54297,0.54297 -1.13672,1.03125 -1.77735,1.45703 -0.63672,0.42969 -1.3125,0.78906 -2.02343,1.08203 -0.71094,0.29688 -1.44532,0.51953 -2.19922,0.66797 -0.75391,0.15234 -1.51563,0.22656 -2.28516,0.22656 -0.76953,0 -1.53125,-0.0742 -2.28906,-0.22656 -0.75391,-0.14844 -1.48438,-0.37109 -2.19531,-0.66797 -0.71094,-0.29297 -1.38672,-0.65234 -2.02735,-1.08203 -0.64062,-0.42578 -1.23047,-0.91406 -1.77734,-1.45703 -0.54297,-0.54297 -1.02735,-1.13672 -1.45703,-1.77344 -0.42578,-0.64062 -0.78907,-1.31641 -1.08203,-2.02734 -0.29297,-0.71094 -0.51563,-1.44532 -0.66797,-2.19922 -0.14844,-0.75391 -0.22266,-1.51563 -0.22266,-2.28516 0,-0.76953 0.0742,-1.53125 0.22266,-2.28515 0.15234,-0.75782 0.375,-1.48829 0.66797,-2.19922 0.29296,-0.71094 0.65625,-1.38672 1.08203,-2.02735 0.42968,-0.64062 0.91406,-1.23047 1.45703,-1.77734 0.54687,-0.54297 1.13672,-1.02734 1.77734,-1.45703 0.64063,-0.42578 1.31641,-0.78516 2.02735,-1.08203 0.71093,-0.29297 1.4414,-0.51563 2.19531,-0.66797 0.75781,-0.14844 1.51953,-0.22266 2.28906,-0.22266 0.76953,0 1.53125,0.0742 2.28516,0.22266 0.7539,0.15234 1.48828,0.375 2.19922,0.66797 0.71093,0.29687 1.38671,0.65625 2.02343,1.08203 0.64063,0.42969 1.23438,0.91406 1.77735,1.45703 0.54297,0.54687 1.03125,1.13672 1.45703,1.77734 0.42969,0.64063 0.78906,1.31641 1.08203,2.02735 0.29687,0.71093 0.51953,1.4414 0.66797,2.19922 0.14844,0.7539 0.22656,1.51562 0.22656,2.28515 z m 0,0"
       id="path6" />
    <path
       style="fill:#ffffff;fill-opacity:1;fill-rule:nonzero;stroke:none"
       d="m 139.92578,161.85156 h 24.84375 c -0.75391,-1.4414 -1.6875,-2.75 -2.80859,-3.92969 -1.11719,-1.17968 -2.375,-2.18359 -3.77344,-3.01171 -1.39844,-0.82813 -2.88281,-1.44922 -4.45703,-1.86329 -1.57031,-0.41015 -3.16797,-0.60156 -4.79297,-0.5664 -1.625,0.0312 -3.21484,0.28515 -4.76953,0.76562 -1.55469,0.47657 -3.01172,1.15625 -4.375,2.04297 -1.36328,0.88281 -2.57813,1.9375 -3.64844,3.16016 -1.07031,1.22656 -1.94922,2.57422 -2.64062,4.04297 2.11718,-0.42578 4.25781,-0.64063 6.42187,-0.64063 z m 0,0"
       id="path7" />
    <path
       style="fill:#ffffff;fill-opacity:1;fill-rule:nonzero;stroke:none"
       d="m 217.26953,211.07031 c 0,0.76953 -0.0781,1.53125 -0.22656,2.28516 -0.14844,0.7539 -0.3711,1.48828 -0.66797,2.19922 -0.29297,0.71093 -0.65234,1.38672 -1.08203,2.02734 -0.42578,0.63672 -0.91406,1.23047 -1.45703,1.77344 -0.54297,0.54297 -1.13672,1.03125 -1.77735,1.45703 -0.63672,0.42969 -1.3125,0.78906 -2.02343,1.08203 -0.71094,0.29688 -1.44532,0.51953 -2.19922,0.66797 -0.75391,0.15234 -1.51563,0.22656 -2.28516,0.22656 -0.76953,0 -1.53125,-0.0742 -2.28906,-0.22656 -0.75391,-0.14844 -1.48438,-0.37109 -2.19531,-0.66797 -0.71094,-0.29297 -1.38672,-0.65234 -2.02735,-1.08203 -0.64062,-0.42578 -1.23047,-0.91406 -1.77734,-1.45703 -0.54297,-0.54297 -1.02735,-1.13672 -1.45703,-1.77344 -0.42578,-0.64062 -0.78907,-1.31641 -1.08203,-2.02734 -0.29297,-0.71094 -0.51563,-1.44532 -0.66797,-2.19922 -0.14844,-0.75391 -0.22266,-1.51563 -0.22266,-2.28516 0,-0.76953 0.0742,-1.53125 0.22266,-2.28515 0.15234,-0.75782 0.375,-1.48829 0.66797,-2.19922 0.29296,-0.71094 0.65625,-1.38672 1.08203,-2.02735 0.42968,-0.64062 0.91406,-1.23047 1.45703,-1.77734 0.54687,-0.54297 1.13672,-1.02734 1.77734,-1.45703 0.64063,-0.42578 1.31641,-0.78516 2.02735,-1.08203 0.71093,-0.29297 1.4414,-0.51563 2.19531,-0.66797 0.75781,-0.14844 1.51953,-0.22266 2.28906,-0.22266 0.76953,0 1.53125,0.0742 2.28516,0.22266 0.7539,0.15234 1.48828,0.375 2.19922,0.66797 0.71093,0.29687 1.38671,0.65625 2.02343,1.08203 0.64063,0.42969 1.23438,0.91406 1.77735,1.45703 0.54297,0.54687 1.03125,1.13672 1.45703,1.77734 0.42969,0.64063 0.78906,1.31641 1.08203,2.02735 0.29687,0.71093 0.51953,1.4414 0.66797,2.19922 0.14844,0.7539 0.22656,1.51562 0.22656,2.28515 z m 0,0"
       id="path8" />
    <path
       style="fill:#ffffff;fill-opacity:1;fill-rule:nonzero;stroke:none"
       d="m 161.01953,211.07031 c 0,0.76953 -0.0781,1.53125 -0.22656,2.28516 -0.14844,0.7539 -0.3711,1.48828 -0.66797,2.19922 -0.29297,0.71093 -0.65234,1.38672 -1.08203,2.02734 -0.42578,0.63672 -0.91406,1.23047 -1.45703,1.77344 -0.54297,0.54297 -1.13672,1.03125 -1.77735,1.45703 -0.63672,0.42969 -1.3125,0.78906 -2.02343,1.08203 -0.71094,0.29688 -1.44532,0.51953 -2.19922,0.66797 -0.75391,0.15234 -1.51563,0.22656 -2.28516,0.22656 -0.76953,0 -1.53125,-0.0742 -2.28906,-0.22656 -0.75391,-0.14844 -1.48438,-0.37109 -2.19531,-0.66797 -0.71094,-0.29297 -1.38672,-0.65234 -2.02735,-1.08203 -0.64062,-0.42578 -1.23047,-0.91406 -1.77734,-1.45703 -0.54297,-0.54297 -1.02735,-1.13672 -1.45703,-1.77344 -0.42578,-0.64062 -0.78907,-1.31641 -1.08203,-2.02734 -0.29297,-0.71094 -0.51563,-1.44532 -0.66797,-2.19922 -0.14844,-0.75391 -0.22266,-1.51563 -0.22266,-2.28516 0,-0.76953 0.0742,-1.53125 0.22266,-2.28515 0.15234,-0.75782 0.375,-1.48829 0.66797,-2.19922 0.29296,-0.71094 0.65625,-1.38672 1.08203,-2.02735 0.42968,-0.64062 0.91406,-1.23047 1.45703,-1.77734 0.54687,-0.54297 1.13672,-1.02734 1.77734,-1.45703 0.64063,-0.42578 1.31641,-0.78516 2.02735,-1.08203 0.71093,-0.29297 1.4414,-0.51563 2.19531,-0.66797 0.75781,-0.14844 1.51953,-0.22266 2.28906,-0.22266 0.76953,0 1.53125,0.0742 2.28516,0.22266 0.7539,0.15234 1.48828,0.375 2.19922,0.66797 0.71093,0.29687 1.38671,0.65625 2.02343,1.08203 0.64063,0.42969 1.23438,0.91406 1.77735,1.45703 0.54297,0.54687 1.03125,1.13672 1.45703,1.77734 0.42969,0.64063 0.78906,1.31641 1.08203,2.02735 0.29687,0.71093 0.51953,1.4414 0.66797,2.19922 0.14844,0.7539 0.22656,1.51562 0.22656,2.28515 z m 0,0"
       id="path9" />
    <path
       style="fill:#ffffff;fill-opacity:1;fill-rule:nonzero;stroke:none"
       d="m 214.92578,161.85156 c 2.16406,0 4.30859,0.21485 6.42969,0.64063 -0.69141,-1.47266 -1.57031,-2.82032 -2.64063,-4.04297 -1.07031,-1.22656 -2.28515,-2.28125 -3.64843,-3.16797 -1.36329,-0.88672 -2.82422,-1.56641 -4.37891,-2.04688 -1.55469,-0.47656 -3.14453,-0.73046 -4.76953,-0.76562 -1.625,-0.0312 -3.22656,0.15625 -4.79688,0.57031 -1.57422,0.41406 -3.05859,1.03516 -4.45703,1.86328 -1.40234,0.82813 -2.66015,1.83594 -3.77734,3.01563 -1.11719,1.17969 -2.05469,2.49219 -2.80469,3.93359 z m 0,0"
       id="path10" />
    <g
       clip-rule="nonzero"
       clip-path="url(#fc4fa5ff1a)"
       id="g11">
      <path
         style="fill:#ffffff;fill-opacity:1;fill-rule:nonzero;stroke:none"
         d="m 185.76953,218.10156 c -0.86328,-2.26562 -1.30078,-4.60937 -1.3125,-7.03125 0,-0.6914 0.0312,-1.3789 0.10156,-2.0664 0.0664,-0.6875 0.16797,-1.3711 0.30078,-2.05079 0.13672,-0.67578 0.30469,-1.34375 0.50391,-2.00781 0.20313,-0.66015 0.43359,-1.30859 0.69922,-1.94922 0.26172,-0.63672 0.55859,-1.26172 0.88281,-1.87109 0.32813,-0.60938 0.6836,-1.19922 1.06641,-1.77344 0.38281,-0.57422 0.79297,-1.1289 1.23047,-1.66406 0.4414,-0.53516 0.90234,-1.04688 1.39062,-1.53516 0.48828,-0.48828 1,-0.94922 1.53516,-1.38672 0.53515,-0.4414 1.08984,-0.85156 1.66406,-1.23437 0.57422,-0.38281 1.16406,-0.73828 1.77344,-1.06641 0.60937,-0.32422 1.23437,-0.61718 1.87109,-0.88281 0.64063,-0.26562 1.28906,-0.49609 1.94922,-0.69922 0.66016,-0.19922 1.33203,-0.36719 2.00781,-0.5 0.67969,-0.13672 1.35938,-0.23828 2.04688,-0.30469 0.6875,-0.0703 1.3789,-0.10156 2.07031,-0.10156 0.69141,0 1.37891,0.0312 2.06641,0.10156 0.6875,0.0664 1.37109,0.16797 2.04687,0.30469 0.67969,0.13281 1.34766,0.30078 2.00781,0.5 0.66016,0.20313 1.3125,0.4336 1.94922,0.69922 0.64063,0.26563 1.26172,0.55859 1.8711,0.88281 0.60937,0.32813 1.20312,0.6836 1.77734,1.06641 0.57422,0.38281 1.12891,0.79297 1.66016,1.23437 0.53515,0.4375 1.04687,0.89844 1.53515,1.38672 0.48828,0.48828 0.95313,1 1.39063,1.53516 0.4375,0.53516 0.84765,1.08984 1.23437,1.66406 0.38282,0.57422 0.73828,1.16406 1.0625,1.77344 0.32422,0.60937 0.6211,1.23437 0.88672,1.87109 0.26172,0.64063 0.4961,1.28907 0.69531,1.94922 0.20313,0.66406 0.36719,1.33203 0.50391,2.00781 0.13281,0.67969 0.23438,1.36329 0.30469,2.05079 0.0664,0.6875 0.10156,1.375 0.10156,2.0664 -0.0195,1.35938 -0.17578,2.70313 -0.46875,4.03125 1.13281,-0.61719 2.20703,-1.32422 3.22266,-2.12109 1.01562,-0.79688 1.96093,-1.66797 2.83203,-2.6211 0.87109,-0.95312 1.65625,-1.96875 2.35937,-3.05078 0.70313,-1.08593 1.3125,-2.21875 1.82422,-3.40234 0.51563,-1.17969 0.92969,-2.39844 1.24219,-3.65234 0.3125,-1.25 0.52344,-2.51954 0.625,-3.80469 0.10156,-1.28906 0.0977,-2.57422 -0.0117,-3.85938 -0.10937,-1.28515 -0.32422,-2.55468 -0.64844,-3.80468 -0.32031,-1.25 -0.73828,-2.46485 -1.26172,-3.64454 -0.52343,-1.17968 -1.13671,-2.30859 -1.84765,-3.38671 -0.70703,-1.07813 -1.5,-2.09375 -2.37891,-3.03907 -0.875,-0.94531 -1.82422,-1.8164 -2.84375,-2.60547 -1.02344,-0.78906 -2.10156,-1.48828 -3.23828,-2.10156 -1.13672,-0.60937 -2.31641,-1.12109 -3.53906,-1.53906 -1.21875,-0.41406 -2.46875,-0.72656 -3.74219,-0.93359 -1.27344,-0.21094 -2.55469,-0.3125 -3.84375,-0.3086 h -75 c -1.29297,-0.004 -2.57422,0.0977 -3.84766,0.3086 -1.27343,0.20703 -2.51953,0.51953 -3.74218,0.93359 -1.22266,0.41797 -2.40235,0.92969 -3.53907,1.53906 -1.13671,0.61328 -2.21484,1.3125 -3.23437,2.10156 -1.02344,0.78907 -1.96875,1.66016 -2.84766,2.60547 -0.875,0.94532 -1.66796,1.96094 -2.3789,3.03907 -0.70703,1.07812 -1.32422,2.20703 -1.84766,3.38671 -0.51953,1.17969 -0.9414,2.39454 -1.26172,3.64454 -0.32031,1.25 -0.53515,2.51953 -0.64843,3.80468 -0.10938,1.28516 -0.11329,2.57032 -0.008,3.85938 0.10157,1.28515 0.3086,2.55469 0.6211,3.80469 0.3125,1.2539 0.72656,2.47265 1.24218,3.65234 0.51563,1.18359 1.125,2.31641 1.82813,3.40234 0.69922,1.08203 1.48828,2.09766 2.35937,3.05078 0.8711,0.95313 1.8125,1.82422 2.82813,2.6211 1.01953,0.79687 2.09375,1.5039 3.22656,2.12109 -0.29687,-1.32812 -0.45312,-2.67187 -0.46875,-4.03125 0,-0.6914 0.0312,-1.3789 0.10156,-2.0664 0.0664,-0.6875 0.16797,-1.3711 0.30078,-2.05079 0.13672,-0.67578 0.30469,-1.34375 0.50391,-2.00781 0.20313,-0.66015 0.43359,-1.30859 0.69922,-1.94922 0.26172,-0.63672 0.55859,-1.26172 0.88281,-1.87109 0.32813,-0.60938 0.6836,-1.19922 1.06641,-1.77344 0.38281,-0.57422 0.79297,-1.1289 1.23047,-1.66406 0.4414,-0.53516 0.90234,-1.04688 1.39062,-1.53516 0.48828,-0.48828 1,-0.94922 1.53516,-1.38672 0.53515,-0.4414 1.08984,-0.85156 1.66406,-1.23437 0.57422,-0.38281 1.16406,-0.73828 1.77344,-1.06641 0.60937,-0.32422 1.23437,-0.61718 1.87109,-0.88281 0.64063,-0.26562 1.28906,-0.49609 1.94922,-0.69922 0.66016,-0.19922 1.33203,-0.36719 2.00781,-0.5 0.67969,-0.13672 1.35938,-0.23828 2.04688,-0.30469 0.6875,-0.0703 1.3789,-0.10156 2.07031,-0.10156 0.69141,0 1.37891,0.0312 2.06641,0.10156 0.6875,0.0664 1.37109,0.16797 2.04687,0.30469 0.67969,0.13281 1.34766,0.30078 2.00781,0.5 0.66016,0.20313 1.3125,0.4336 1.94922,0.69922 0.64063,0.26563 1.26172,0.55859 1.8711,0.88281 0.60937,0.32813 1.20312,0.6836 1.77734,1.06641 0.57422,0.38281 1.12891,0.79297 1.66016,1.23437 0.53515,0.4375 1.04687,0.89844 1.53515,1.38672 0.48828,0.48828 0.95313,1 1.39063,1.53516 0.4375,0.53516 0.84765,1.08984 1.23437,1.66406 0.38282,0.57422 0.73828,1.16406 1.0625,1.77344 0.32422,0.60937 0.6211,1.23437 0.88672,1.87109 0.26172,0.64063 0.4961,1.28907 0.69531,1.94922 0.20313,0.66406 0.36719,1.33203 0.50391,2.00781 0.13281,0.67969 0.23438,1.36329 0.30469,2.05079 0.0664,0.6875 0.10156,1.375 0.10156,2.0664 -0.0117,2.42188 -0.44922,4.76563 -1.3125,7.03125 z m 0,0"
         id="path11" />
    </g>
    <path
       style="fill:#ffffff;fill-opacity:1;fill-rule:nonzero;stroke:none"
       d="m 223.12891,240.36719 c 0,-0.57813 -0.0312,-1.15235 -0.0859,-1.72266 -0.0547,-0.57422 -0.14063,-1.14453 -0.25391,-1.70703 -0.11328,-0.56641 -0.25,-1.12109 -0.41797,-1.67188 -0.16797,-0.55468 -0.35937,-1.09375 -0.58203,-1.625 -0.21875,-0.53125 -0.46484,-1.05078 -0.73828,-1.55859 -0.26953,-0.50781 -0.56641,-1.00391 -0.88672,-1.48047 -0.32031,-0.48047 -0.66015,-0.9414 -1.02734,-1.38672 -0.36328,-0.44531 -0.75,-0.87109 -1.15625,-1.27734 -0.41016,-0.40625 -0.83594,-0.79297 -1.28125,-1.16016 -0.44141,-0.36328 -0.90625,-0.70703 -1.38281,-1.02734 -0.48047,-0.32031 -0.97266,-0.61328 -1.48047,-0.88672 -0.50782,-0.26953 -1.02735,-0.51562 -1.5586,-0.73828 -0.53125,-0.21875 -1.07422,-0.41406 -1.625,-0.57813 -0.55078,-0.16796 -1.10937,-0.30859 -1.67187,-0.42187 -0.56641,-0.10938 -1.13672,-0.19531 -1.70703,-0.25391 -0.57422,-0.0547 -1.14844,-0.082 -1.72266,-0.082 -0.57812,0 -1.15234,0.0273 -1.72266,0.082 -0.57421,0.0586 -1.14453,0.14453 -1.70703,0.25391 -0.5664,0.11328 -1.125,0.25391 -1.67578,0.42187 -0.55078,0.16407 -1.08984,0.35938 -1.62109,0.57813 -0.53516,0.22266 -1.05469,0.46875 -1.5625,0.73828 -0.50781,0.27344 -1,0.56641 -1.47656,0.88672 -0.48047,0.32031 -0.94141,0.66406 -1.38672,1.02734 -0.44532,0.36719 -0.8711,0.75391 -1.27735,1.16016 -0.40625,0.40625 -0.79297,0.83203 -1.16015,1.27734 -0.36328,0.44532 -0.70703,0.90625 -1.02735,1.38672 -0.32031,0.47656 -0.61328,0.97266 -0.88672,1.48047 -0.26953,0.50781 -0.51562,1.02734 -0.73828,1.55859 -0.21875,0.53125 -0.41406,1.07032 -0.58203,1.625 -0.16406,0.55079 -0.30469,1.10547 -0.41797,1.67188 -0.11328,0.5625 -0.19531,1.13281 -0.2539,1.70703 -0.0547,0.57031 -0.082,1.14453 -0.082,1.72266 0,0.38281 0.0352,0.76562 0.11328,1.14062 0.0742,0.37891 0.18359,0.7461 0.33203,1.10156 0.14844,0.35547 0.32812,0.69141 0.54297,1.01172 0.21093,0.32032 0.45312,0.61719 0.72656,0.88672 0.27344,0.27344 0.56641,0.51563 0.88672,0.73047 0.32031,0.21484 0.66015,0.39453 1.01562,0.54297 0.35547,0.14453 0.71875,0.25781 1.09766,0.33203 0.37891,0.0742 0.75781,0.11328 1.14453,0.11328 h 23.4375 c 0.38281,0 0.76563,-0.0391 1.14063,-0.11328 0.3789,-0.0742 0.74609,-0.1875 1.10156,-0.33203 0.35547,-0.14844 0.6914,-0.32813 1.01172,-0.54297 0.32031,-0.21484 0.61718,-0.45703 0.88672,-0.73047 0.27343,-0.26953 0.51562,-0.5664 0.73046,-0.88672 0.21485,-0.32031 0.39454,-0.65625 0.54297,-1.01172 0.14453,-0.35546 0.25782,-0.72265 0.33203,-1.10156 0.0742,-0.375 0.11329,-0.75781 0.11329,-1.14062 z m 0,0"
       id="path12" />
    <path
       style="fill:#ffffff;fill-opacity:1;fill-rule:nonzero;stroke:none"
       d="m 131.72266,240.36719 c 0,-0.57813 0.0273,-1.15235 0.082,-1.72266 0.0586,-0.57422 0.14062,-1.14453 0.2539,-1.70703 0.11328,-0.56641 0.25391,-1.12109 0.41797,-1.67188 0.16797,-0.55468 0.36328,-1.09375 0.58203,-1.625 0.22266,-0.53125 0.46875,-1.05078 0.73828,-1.55859 0.27344,-0.50781 0.56641,-1.00391 0.88672,-1.48047 0.32032,-0.48047 0.66407,-0.9414 1.02735,-1.38672 0.36718,-0.44531 0.7539,-0.87109 1.16015,-1.27734 0.40625,-0.40625 0.83203,-0.79297 1.27735,-1.16016 0.44531,-0.36328 0.90625,-0.70703 1.38672,-1.02734 0.47656,-0.32031 0.96875,-0.61328 1.47656,-0.88672 0.50781,-0.26953 1.02734,-0.51562 1.5625,-0.73828 0.53125,-0.21875 1.07031,-0.41406 1.62109,-0.57813 0.55078,-0.16796 1.10938,-0.30859 1.67578,-0.42187 0.5625,-0.10938 1.13282,-0.19531 1.70703,-0.25391 0.57032,-0.0547 1.14454,-0.082 1.72266,-0.082 0.57422,0 1.14844,0.0273 1.72266,0.082 0.57031,0.0586 1.14062,0.14453 1.70703,0.25391 0.5625,0.11328 1.12109,0.25391 1.67187,0.42187 0.55078,0.16407 1.09375,0.35938 1.625,0.57813 0.53125,0.22266 1.05078,0.46875 1.5586,0.73828 0.50781,0.27344 1,0.56641 1.48047,0.88672 0.47656,0.32031 0.9414,0.66406 1.38281,1.02734 0.44531,0.36719 0.87109,0.75391 1.28125,1.16016 0.40625,0.40625 0.79297,0.83203 1.15625,1.27734 0.36719,0.44532 0.70703,0.90625 1.02734,1.38672 0.32031,0.47656 0.61719,0.97266 0.88672,1.48047 0.27344,0.50781 0.51953,1.02734 0.73828,1.55859 0.22266,0.53125 0.41406,1.07032 0.58203,1.625 0.16797,0.55079 0.30469,1.10547 0.41797,1.67188 0.11328,0.5625 0.19922,1.13281 0.25391,1.70703 0.0547,0.57031 0.0859,1.14453 0.0859,1.72266 0,0.38281 -0.0391,0.76562 -0.11329,1.14062 -0.0742,0.37891 -0.1875,0.7461 -0.33203,1.10156 -0.14843,0.35547 -0.32812,0.69141 -0.54297,1.01172 -0.21484,0.32032 -0.45703,0.61719 -0.73046,0.88672 -0.26954,0.27344 -0.56641,0.51563 -0.88672,0.73047 -0.32032,0.21484 -0.65625,0.39453 -1.01172,0.54297 -0.35547,0.14453 -0.72266,0.25781 -1.10156,0.33203 -0.375,0.0742 -0.75782,0.11328 -1.14063,0.11328 h -23.4375 c -0.38672,0 -0.76562,-0.0391 -1.14453,-0.11328 -0.37891,-0.0742 -0.74219,-0.1875 -1.09766,-0.33203 -0.35547,-0.14844 -0.69531,-0.32813 -1.01562,-0.54297 -0.32031,-0.21484 -0.61328,-0.45703 -0.88672,-0.73047 -0.27344,-0.26953 -0.51563,-0.5664 -0.72656,-0.88672 -0.21485,-0.32031 -0.39453,-0.65625 -0.54297,-1.01172 -0.14844,-0.35546 -0.25781,-0.72265 -0.33203,-1.10156 -0.0781,-0.375 -0.11328,-0.75781 -0.11328,-1.14062 z m 0,0"
       id="path13" />
  </g>
</svg>
