<?xml version="1.0" encoding="UTF-8" standalone="no"?>
<svg
   width="169.34895"
   zoomAndPan="magnify"
   viewBox="0 0 127.01171 127.49609"
   height="169.9948"
   preserveAspectRatio="xMidYMid"
   version="1.2"
   id="svg13"
   sodipodi:docname="tournaments.svg"
   inkscape:version="1.4.2 (f4327f4, 2025-05-13)"
   xmlns:inkscape="http://www.inkscape.org/namespaces/inkscape"
   xmlns:sodipodi="http://sodipodi.sourceforge.net/DTD/sodipodi-0.dtd"
   xmlns="http://www.w3.org/2000/svg"
   xmlns:svg="http://www.w3.org/2000/svg">
  <sodipodi:namedview
     id="namedview13"
     pagecolor="#ffffff"
     bordercolor="#000000"
     borderopacity="0.25"
     inkscape:showpageshadow="2"
     inkscape:pageopacity="0.0"
     inkscape:pagecheckerboard="0"
     inkscape:deskcolor="#d1d1d1"
     inkscape:zoom="2.502"
     inkscape:cx="97.921663"
     inkscape:cy="84.132694"
     inkscape:window-width="2560"
     inkscape:window-height="1511"
     inkscape:window-x="-9"
     inkscape:window-y="1341"
     inkscape:window-maximized="1"
     inkscape:current-layer="svg13" />
  <defs
     id="defs4">
    <clipPath
       id="a2786ec9f1">
      <path
         d="m 114.04688,124.37109 h 127.49999 v 127.5 H 114.04688 Z m 0,0"
         id="path1" />
    </clipPath>
    <clipPath
       id="9bae1f144c">
      <path
         d="m 131.26562,124.37109 h 92.57422 c 4.56641,0 8.94532,1.8125 12.17578,5.04297 3.22657,3.22656 5.04297,7.60547 5.04297,12.17188 v 93.0664 c 0,4.56641 -1.8164,8.94532 -5.04297,12.17188 -3.23046,3.23047 -7.60937,5.04297 -12.17578,5.04297 h -92.57422 c -4.5664,0 -8.94531,-1.8125 -12.17578,-5.04297 -3.22656,-3.22656 -5.04296,-7.60547 -5.04296,-12.17188 v -93.0664 c 0,-4.56641 1.8164,-8.94532 5.04296,-12.17188 3.23047,-3.23047 7.60938,-5.04297 12.17578,-5.04297 z m 0,0"
         id="path2" />
    </clipPath>
    <clipPath
       id="57a033fd62">
      <path
         d="M 122.25781,211 H 147 v 33 h -24.74219 z m 0,0"
         id="path3" />
    </clipPath>
    <clipPath
       id="2fea1119f6">
      <path
         d="m 149,131.84375 h 57 V 194 h -57 z m 0,0"
         id="path4" />
    </clipPath>
  </defs>
  <g
     id="21785f80a9"
     transform="translate(-114.04688,-124.37109)">
    <g
       clip-rule="nonzero"
       clip-path="url(#a2786ec9f1)"
       id="g6">
      <g
         clip-rule="nonzero"
         clip-path="url(#9bae1f144c)"
         id="g5">
        <path
           style="fill:none;stroke:#ffffff;stroke-width:8;stroke-linecap:butt;stroke-linejoin:miter;stroke-miterlimit:4;stroke-opacity:1"
           d="M 22.998812,0.00198593 H 146.65801 c 6.09974,0 11.94901,2.42110907 16.26422,6.73631907 4.30999,4.309992 6.73632,10.159267 6.73632,16.259001 V 147.31396 c 0,6.09974 -2.42633,11.94901 -6.73632,16.259 -4.31521,4.31521 -10.16448,6.73632 -16.26422,6.73632 H 22.998812 c -6.099735,0 -11.949009,-2.42111 -16.264219,-6.73632 -4.309992,-4.30999 -6.73631938,-10.15926 -6.73631938,-16.259 V 22.997306 c 0,-6.099734 2.42632738,-11.949009 6.73631938,-16.259001 4.31521,-4.31521 10.164484,-6.73631907 16.264219,-6.73631907 z m 0,0"
           transform="matrix(0.748624,0,0,0.748624,114.04817,124.36961)"
           id="path5" />
      </g>
    </g>
    <path
       style="fill:#ffffff;fill-opacity:1;fill-rule:nonzero;stroke:none"
       d="m 136.73437,202.64062 h 24.22266 v 5.58985 h 3.72656 v -7.45313 c 0,-0.24218 -0.0508,-0.48437 -0.14453,-0.71093 -0.0937,-0.22657 -0.23047,-0.4336 -0.40234,-0.60547 -0.17188,-0.17188 -0.37891,-0.3086 -0.60547,-0.40235 -0.22656,-0.0937 -0.46875,-0.14453 -0.71094,-0.14453 h -11.17969 v -14.90625 h 13.04297 v -3.72656 h -14.90625 c -0.24609,0 -0.48828,0.0508 -0.71484,0.14453 -0.22656,0.0937 -0.42969,0.23047 -0.60547,0.40234 -0.17187,0.17188 -0.30859,0.37891 -0.40234,0.60547 -0.0937,0.22657 -0.14063,0.46875 -0.14063,0.71094 v 16.76953 h -13.04297 c -0.24609,0 -0.48828,0.0508 -0.71484,0.14453 -0.22656,0.0937 -0.42969,0.23047 -0.60547,0.40235 -0.17187,0.17187 -0.30859,0.3789 -0.40234,0.60547 -0.0937,0.22656 -0.14063,0.46875 -0.14063,0.71093 v 7.45313 h 3.72656 z m 0,0"
       id="path6" />
    <path
       style="fill:#ffffff;fill-opacity:1;fill-rule:nonzero;stroke:none"
       d="m 232.28906,221.10547 -0.54687,-3.82031 c -0.0469,-0.32422 -0.17578,-0.62891 -0.37891,-0.88672 -0.20312,-0.25782 -0.46875,-0.45703 -0.77344,-0.57813 l -9.3164,-3.72656 c -0.44532,-0.17969 -0.94141,-0.17969 -1.38282,0 l -9.3164,3.72656 c -0.30469,0.1211 -0.57422,0.32031 -0.77344,0.57813 -0.20312,0.25781 -0.33594,0.5625 -0.38281,0.88672 l -0.54297,3.82031 c -0.44141,3.14844 -0.14844,6.35937 0.85547,9.375 1.00781,3.01953 2.69531,5.76172 4.9414,8.01562 l 4.58985,4.59375 c 0.17578,0.17188 0.3789,0.3086 0.60547,0.40235 0.22656,0.0937 0.46875,0.14062 0.71484,0.14062 0.24219,0 0.48438,-0.0469 0.71094,-0.14062 0.22656,-0.0937 0.43359,-0.23047 0.60547,-0.40235 l 4.59375,-4.59375 c 2.24218,-2.2539 3.93359,-4.99609 4.9375,-8.01562 1.00781,-3.01563 1.30078,-6.22656 0.85937,-9.375 z m -8.43359,14.75781 -3.27344,3.27344 -3.27734,-3.27344 c -1.83594,-1.84766 -3.21875,-4.08984 -4.03907,-6.55859 -0.82421,-2.46875 -1.0625,-5.09375 -0.70312,-7.67188 l 0.39453,-2.7539 7.625,-3.05079 7.62109,3.05079 0.39454,2.7539 c 0.36328,2.57813 0.12109,5.20313 -0.69922,7.67188 -0.82422,2.46875 -2.20703,4.71093 -4.04297,6.55859 z m 0,0"
       id="path7" />
    <path
       style="fill:#ffffff;fill-opacity:1;fill-rule:nonzero;stroke:none"
       d="m 203.79297,217.28516 c -0.0469,-0.32422 -0.17578,-0.62891 -0.37891,-0.88672 -0.20312,-0.25782 -0.46875,-0.45703 -0.77344,-0.57813 l -9.3164,-3.72656 c -0.44531,-0.17969 -0.94141,-0.17969 -1.38281,0 l -9.31641,3.72656 c -0.30469,0.1211 -0.57422,0.32031 -0.77344,0.57813 -0.20312,0.25781 -0.33594,0.5625 -0.38281,0.88672 l -0.54297,3.82031 c -0.44141,3.14844 -0.14844,6.35937 0.85547,9.375 1.00781,3.01953 2.69531,5.76172 4.94141,8.01562 l 4.58984,4.59375 c 0.17578,0.17188 0.37891,0.3086 0.60547,0.40235 0.22656,0.0937 0.46875,0.14062 0.71484,0.14062 0.24219,0 0.48438,-0.0469 0.71094,-0.14062 0.22656,-0.0937 0.43359,-0.23047 0.60547,-0.40235 l 4.59375,-4.59375 c 2.24219,-2.2539 3.93359,-4.99609 4.9375,-8.01562 1.00781,-3.01563 1.30078,-6.22656 0.85937,-9.375 z m -7.88672,18.57812 -3.27344,3.27344 -3.27734,-3.27344 c -1.83594,-1.84766 -3.21875,-4.08984 -4.03906,-6.55859 -0.82422,-2.46875 -1.0625,-5.09375 -0.70313,-7.67188 l 0.39453,-2.7539 7.625,-3.05079 7.6211,3.05079 0.39453,2.7539 c 0.36328,2.57813 0.12109,5.20313 -0.69922,7.67188 -0.82422,2.46875 -2.20703,4.71093 -4.04297,6.55859 z m 0,0"
       id="path8" />
    <path
       style="fill:#ffffff;fill-opacity:1;fill-rule:nonzero;stroke:none"
       d="m 173.98047,217.28516 c -0.0469,-0.32422 -0.17578,-0.62891 -0.37891,-0.88672 -0.20312,-0.25782 -0.46875,-0.45703 -0.77344,-0.57813 l -9.3164,-3.72656 c -0.44531,-0.17969 -0.94141,-0.17969 -1.38281,0 l -9.31641,3.72656 c -0.30469,0.1211 -0.57422,0.32031 -0.77344,0.57813 -0.20312,0.25781 -0.33594,0.5625 -0.38281,0.88672 l -0.54297,3.82031 c -0.44141,3.14844 -0.14844,6.35937 0.85547,9.375 1.00781,3.01953 2.69531,5.76172 4.94141,8.01562 l 4.58984,4.59375 c 0.17578,0.17188 0.37891,0.3086 0.60547,0.40235 0.22656,0.0937 0.46875,0.14062 0.71484,0.14062 0.24219,0 0.48438,-0.0469 0.71094,-0.14062 0.22656,-0.0937 0.43359,-0.23047 0.60547,-0.40235 l 4.59375,-4.59375 c 2.24219,-2.2539 3.93359,-4.99609 4.9375,-8.01562 1.00781,-3.01563 1.30078,-6.22656 0.85937,-9.375 z m -7.88672,18.57812 -3.27344,3.27344 -3.27734,-3.27344 c -1.83594,-1.84766 -3.21875,-4.08984 -4.03906,-6.55859 -0.82422,-2.46875 -1.0625,-5.09375 -0.70313,-7.67188 l 0.39453,-2.7539 7.625,-3.05079 7.6211,3.05079 0.39453,2.7539 c 0.36328,2.57813 0.12109,5.20313 -0.69922,7.67188 -0.82422,2.46875 -2.20703,4.71093 -4.04297,6.55859 z m 0,0"
       id="path9" />
    <g
       clip-rule="nonzero"
       clip-path="url(#57a033fd62)"
       id="g10">
      <path
         style="fill:#ffffff;fill-opacity:1;fill-rule:nonzero;stroke:none"
         d="m 146.03125,217.28516 c -0.0469,-0.32422 -0.17578,-0.62891 -0.37891,-0.88672 -0.20312,-0.25782 -0.46875,-0.45703 -0.77343,-0.57813 l -9.31641,-3.72656 c -0.44531,-0.17969 -0.94141,-0.17969 -1.38281,0 l -9.31641,3.72656 c -0.30469,0.1211 -0.57422,0.32031 -0.77344,0.57813 -0.20312,0.25781 -0.33593,0.5625 -0.3789,0.88672 l -0.54688,3.82031 c -0.4414,3.14844 -0.14843,6.35937 0.85547,9.375 1.00781,3.01953 2.69531,5.76172 4.94141,8.01562 l 4.58984,4.59375 c 0.17578,0.17188 0.37891,0.3086 0.60547,0.40235 0.22656,0.0937 0.46875,0.14062 0.71484,0.14062 0.24219,0 0.48438,-0.0469 0.71094,-0.14062 0.22656,-0.0937 0.43359,-0.23047 0.60547,-0.40235 l 4.59375,-4.59375 c 2.24219,-2.2539 3.93359,-4.99609 4.9375,-8.01562 1.00781,-3.01563 1.30078,-6.22656 0.85937,-9.375 z m -7.88672,18.57812 -3.27344,3.27344 -3.27734,-3.27344 c -1.83594,-1.84766 -3.21875,-4.08984 -4.03906,-6.55859 -0.82422,-2.46875 -1.0625,-5.09375 -0.70313,-7.67188 l 0.39453,-2.7539 7.625,-3.05079 7.6211,3.05079 0.39453,2.7539 c 0.36328,2.57813 0.12109,5.20313 -0.69922,7.67188 -0.82422,2.46875 -2.20703,4.71093 -4.04297,6.55859 z m 0,0"
         id="path10" />
    </g>
    <path
       style="fill:#ffffff;fill-opacity:1;fill-rule:nonzero;stroke:none"
       d="m 190.76953,180.28125 v 3.72656 h 13.04297 v 14.90625 h -11.17969 c -0.24609,0 -0.48828,0.0508 -0.71484,0.14453 -0.22656,0.0937 -0.42969,0.23047 -0.60547,0.40235 -0.17188,0.17187 -0.30859,0.3789 -0.40234,0.60547 -0.0937,0.22656 -0.14063,0.46875 -0.14063,0.71093 v 7.45313 h 3.72656 v -5.58985 h 24.22266 v 5.58985 h 3.72656 v -7.45313 c 0,-0.24218 -0.0508,-0.48437 -0.14453,-0.71093 -0.0937,-0.22657 -0.23047,-0.4336 -0.40234,-0.60547 -0.17188,-0.17188 -0.37891,-0.3086 -0.60547,-0.40235 -0.22656,-0.0937 -0.46875,-0.14453 -0.71094,-0.14453 h -13.04297 v -16.76953 c 0,-0.24219 -0.0508,-0.48437 -0.14453,-0.71094 -0.0937,-0.22656 -0.23047,-0.43359 -0.40234,-0.60547 -0.17188,-0.17187 -0.37891,-0.30859 -0.60547,-0.40234 -0.22656,-0.0937 -0.46875,-0.14453 -0.71094,-0.14453 z m 0,0"
       id="path11" />
    <g
       clip-rule="nonzero"
       clip-path="url(#2fea1119f6)"
       id="g12">
      <path
         style="fill:#ffffff;fill-opacity:1;fill-rule:nonzero;stroke:none"
         d="m 159.80469,169.26953 5.17187,4.65234 c 1.49219,2.9336 3.17969,5.76563 5.05469,8.46875 l -3.35156,8.37891 c -0.11328,0.28516 -0.15625,0.58984 -0.125,0.89453 0.0352,0.30078 0.14062,0.58985 0.3125,0.84375 0.16797,0.25 0.39843,0.45703 0.66797,0.60156 0.26953,0.14063 0.57031,0.21485 0.875,0.21485 h 18.63281 c 0.30469,0 0.60156,-0.0742 0.87109,-0.21485 0.26953,-0.14453 0.5,-0.35156 0.67188,-0.60156 0.16797,-0.2539 0.27734,-0.54297 0.30859,-0.84375 0.0312,-0.30469 -0.008,-0.60937 -0.12109,-0.89453 l -3.35157,-8.37891 c 1.8711,-2.70312 3.5625,-5.53515 5.05469,-8.46875 l 5.16797,-4.65234 c 4.22656,-3.79297 7.33594,-8.66406 8.99219,-14.09375 1.66015,-5.42969 1.80469,-11.21094 0.42187,-16.71484 -0.33984,-1.35938 -1,-2.61719 -1.92968,-3.66797 -0.92579,-1.05078 -2.09375,-1.86328 -3.39844,-2.36719 -1.3086,-0.50391 -2.71485,-0.6875 -4.10938,-0.53516 -1.39062,0.15235 -2.72656,0.63672 -3.89453,1.41407 l -3.38672,2.25781 h -21.23047 l -3.38671,-2.25781 c -1.16407,-0.77735 -2.5,-1.26172 -3.89454,-1.41407 -1.39062,-0.15234 -2.80078,0.0312 -4.10546,0.53516 -1.3086,0.50391 -2.47266,1.31641 -3.40235,2.36719 -0.92578,1.05078 -1.58984,2.30859 -1.92969,3.66797 -1.38281,5.5039 -1.23828,11.28515 0.42188,16.71484 1.66016,5.42969 4.76953,10.30078 8.99219,14.09375 z m 30.73437,-30.69141 3.25781,-2.17187 c 0.66797,-0.44531 1.4336,-0.72266 2.23047,-0.8125 0.80078,-0.0859 1.60938,0.0195 2.35938,0.30859 0.75,0.28907 1.41797,0.75391 1.94922,1.35938 0.53125,0.60156 0.91015,1.32031 1.10547,2.10156 1.16796,4.64063 1.10156,9.5 -0.19141,14.10547 -1.28906,4.60547 -3.76172,8.79687 -7.16797,12.15234 1.41797,-3.88672 2.50391,-7.88672 3.25,-11.95312 l 0.85938,-4.72656 c 0.0781,-0.42188 0.004,-0.85938 -0.20313,-1.23438 -0.20703,-0.37891 -0.53906,-0.67187 -0.9375,-0.82812 l -7.80859,-3.125 z m -19.3789,51.01954 2.23828,-5.58985 h 8.65625 l 2.23437,5.58985 z M 183.31641,165.375 v 3.72656 H 172.13672 V 165.375 Z m -11.17969,-9.31641 c 0,-1.10547 0.32812,-2.18359 0.9414,-3.10547 0.61329,-0.91796 1.48829,-1.63281 2.50782,-2.05859 1.02343,-0.42187 2.14453,-0.53125 3.23047,-0.31641 1.08203,0.21485 2.07812,0.7461 2.86328,1.53125 0.78125,0.78125 1.3125,1.77735 1.52734,2.85938 0.21484,1.08594 0.10547,2.21094 -0.31641,3.23047 -0.42578,1.02344 -1.14062,1.89453 -2.05859,2.50781 -0.92187,0.61719 -2,0.94141 -3.10547,0.94141 -1.48437,0 -2.90234,-0.58985 -3.95312,-1.63672 -1.04688,-1.04688 -1.63672,-2.46875 -1.63672,-3.95313 z m 14.38281,-16.76953 -0.93359,3.72656 h -15.72266 l -0.92969,-3.72656 z m -32.51172,0.0742 c 0.19531,-0.78125 0.57422,-1.5 1.10547,-2.10156 0.53125,-0.60547 1.20313,-1.07031 1.95313,-1.35938 0.74609,-0.28906 1.55468,-0.39453 2.35546,-0.30859 0.79688,0.0898 1.56641,0.36719 2.23438,0.8125 l 3.25781,2.17187 1.29297,5.17579 -7.80469,3.125 c -0.40234,0.15625 -0.73047,0.44921 -0.9414,0.82812 -0.20703,0.375 -0.27735,0.8125 -0.20313,1.23438 l 0.85938,4.72656 c 0.74609,4.0664 1.83203,8.0664 3.2539,11.95312 -3.41015,-3.35547 -5.8789,-7.54687 -7.17187,-12.15234 -1.29297,-4.60547 -1.35547,-9.46484 -0.19141,-14.10547 z m 0,0"
         id="path12" />
    </g>
    <path
       style="fill:#ffffff;fill-opacity:1;fill-rule:nonzero;stroke:none"
       d="m 177.72656,157.92187 c 1.02735,0 1.86328,-0.83203 1.86328,-1.86328 0,-1.02734 -0.83593,-1.86328 -1.86328,-1.86328 -1.03125,0 -1.86328,0.83594 -1.86328,1.86328 0,1.03125 0.83203,1.86328 1.86328,1.86328 z m 0,0"
       id="path13" />
  </g>
</svg>
