<svg xmlns="http://www.w3.org/2000/svg" viewBox="0 0 80 80" width="80" height="80">
  <defs>
    <linearGradient id="g" x1="0" y1="0" x2="0" y2="1">
      <stop offset="0%" stop-color="#f472b6"/>
      <stop offset="100%" stop-color="#db2777"/>
    </linearGradient>
  </defs>
  <!-- Left bracket lines -->
  <path d="M10 16h10v12h8M10 40h10v-12h8" fill="none" stroke="url(#g)" stroke-width="3" stroke-linecap="round" stroke-linejoin="round"/>
  <path d="M10 52h10v12h8M10 76h10v-12h8" fill="none" stroke="url(#g)" stroke-width="3" stroke-linecap="round" stroke-linejoin="round"/>
  <!-- Mid bracket lines -->
  <path d="M28 28h8v18h8M28 64h8v-18h8" fill="none" stroke="url(#g)" stroke-width="3" stroke-linecap="round" stroke-linejoin="round"/>
  <!-- Final line to trophy -->
  <path d="M44 46h8" fill="none" stroke="url(#g)" stroke-width="3" stroke-linecap="round"/>
  <!-- Trophy/winner -->
  <path d="M56 36h14v4c0 6-3 12-7 14-4-2-7-8-7-14z" fill="url(#g)"/>
  <rect x="61" y="54" width="4" height="6" rx="1" fill="url(#g)"/>
  <rect x="57" y="60" width="12" height="3" rx="1.5" fill="url(#g)"/>
  <!-- Star on trophy -->
  <path d="M63 41l1.2 2.4 2.6.4-1.9 1.8.5 2.6L63 47l-2.3 1.2.5-2.6-1.9-1.8 2.6-.4z" fill="#fff" opacity="0.9"/>
  <!-- Match dots -->
  <circle cx="10" cy="16" r="2.5" fill="url(#g)"/>
  <circle cx="10" cy="40" r="2.5" fill="url(#g)"/>
  <circle cx="10" cy="52" r="2.5" fill="url(#g)"/>
  <circle cx="10" cy="76" r="2.5" fill="url(#g)"/>
</svg>
